<svg xmlns="http://www.w3.org/2000/svg" width="1019.024" height="1019.023" viewBox="0 0 1019.024 1019.023"><g transform="translate(0 0)" opacity="0.1"><path d="M519.647,46.014v-29.3l29.3,8.346v29.3Z" transform="translate(132.709 4.268)" fill="#fff"/><path d="M520.156,73.642V46.872l28.025,7.983V81.623Z" transform="translate(132.838 11.97)" fill="#fff"/><path d="M520.664,101.269V77.033l26.748,7.618v24.238Z" transform="translate(132.968 19.673)" fill="#fff"/><path d="M521.173,128.9v-21.7l25.472,7.255v21.7Z" transform="translate(133.098 27.375)" fill="#fff"/><path d="M521.681,156.524V137.353l24.2,6.891v19.171Z" transform="translate(133.228 35.078)" fill="#fff"/><path d="M522.19,184.152V167.513l22.917,6.527v16.639Z" transform="translate(133.358 42.78)" fill="#fff"/><path d="M522.7,211.78V197.673l21.64,6.164v14.107Z" transform="translate(133.488 50.482)" fill="#fff"/><path d="M523.207,239.407V227.834l20.364,5.8v11.573Z" transform="translate(133.618 58.185)" fill="#fff"/><path d="M523.716,267.035v-9.041l19.087,5.437v9.04Z" transform="translate(133.748 65.887)" fill="#fff"/><path d="M524.224,294.663v-6.508l17.81,5.072v6.509Z" transform="translate(133.878 73.59)" fill="#fff"/><path d="M524.733,322.29v-3.976l16.532,4.709V327Z" transform="translate(134.008 81.292)" fill="#fff"/><path d="M525.242,349.918v-1.442L540.5,352.82v1.442Z" transform="translate(134.137 88.995)" fill="#fff"/><path d="M566.421,63.944l3.825-29.052,27.961,12.1-3.824,29.052Z" transform="translate(144.654 8.911)" fill="#fff"/><path d="M563.252,91.4l3.494-26.54,26.743,11.571L590,102.974Z" transform="translate(143.845 16.565)" fill="#fff"/><path d="M560.083,118.86l3.163-24.029,25.524,11.045L585.607,129.9Z" transform="translate(143.035 24.218)" fill="#fff"/><path d="M556.914,146.317l2.833-21.519,24.305,10.518-2.832,21.518Z" transform="translate(142.226 31.872)" fill="#fff"/><path d="M553.745,173.775l2.5-19.008,23.088,9.99-2.5,19.008Z" transform="translate(141.417 39.525)" fill="#fff"/><path d="M550.575,201.233l2.172-16.5,21.87,9.463-2.173,16.5Z" transform="translate(140.607 47.178)" fill="#fff"/><path d="M547.406,228.69l1.842-13.985L569.9,223.64l-1.842,13.986Z" transform="translate(139.798 54.832)" fill="#fff"/><path d="M544.237,256.148l1.51-11.474,19.432,8.409-1.51,11.474Z" transform="translate(138.989 62.485)" fill="#fff"/><path d="M541.068,283.606l1.18-8.963,18.214,7.881-1.18,8.963Z" transform="translate(138.179 70.139)" fill="#fff"/><path d="M537.9,311.063l.85-6.453,17,7.354-.85,6.453Z" transform="translate(137.37 77.792)" fill="#fff"/><path d="M534.73,338.521l.518-3.942,15.778,6.827-.52,3.942Z" transform="translate(136.56 85.446)" fill="#fff"/><path d="M531.561,365.979l.188-1.43,14.559,6.3-.188,1.431Z" transform="translate(135.751 93.099)" fill="#fff"/><path d="M610.448,87.725l7.584-28.3,26.143,15.646-7.584,28.3Z" transform="translate(155.898 15.175)" fill="#fff"/><path d="M603.655,114.543l6.928-25.857,25,14.963-6.928,25.857Z" transform="translate(154.163 22.649)" fill="#fff"/><path d="M596.863,141.361l6.273-23.41L627,132.232l-6.273,23.41Z" transform="translate(152.428 30.123)" fill="#fff"/><path d="M590.07,168.179l5.618-20.965,22.725,13.6L612.8,181.778Z" transform="translate(150.694 37.596)" fill="#fff"/><path d="M583.277,195l4.963-18.518L609.826,189.4l-4.963,18.518Z" transform="translate(148.959 45.07)" fill="#fff"/><path d="M576.485,221.814l4.306-16.071,20.448,12.236-4.306,16.071Z" transform="translate(147.224 52.543)" fill="#fff"/><path d="M569.692,248.633l3.651-13.626,19.308,11.554L589,260.187Z" transform="translate(145.489 60.017)" fill="#fff"/><path d="M562.9,275.45l3-11.179,18.169,10.873-3,11.179Z" transform="translate(143.755 67.49)" fill="#fff"/><path d="M556.107,302.268l2.34-8.732,17.029,10.191-2.34,8.732Z" transform="translate(142.02 74.964)" fill="#fff"/><path d="M549.314,329.086,551,322.8l15.889,9.51L565.2,338.6Z" transform="translate(140.285 82.437)" fill="#fff"/><path d="M542.522,355.9l1.029-3.84,14.751,8.828-1.029,3.84Z" transform="translate(138.55 89.911)" fill="#fff"/><path d="M535.729,382.722l.373-1.393,13.612,8.145-.374,1.395Z" transform="translate(136.816 97.385)" fill="#fff"/><path d="M650.974,116.949l11.213-27.071L686.066,108.8l-11.214,27.071Z" transform="translate(166.247 22.953)" fill="#fff"/><path d="M640.674,142.669l10.244-24.732,22.838,18.1-10.244,24.731Z" transform="translate(163.617 30.119)" fill="#fff"/><path d="M630.375,168.388,639.649,146l21.8,17.275-9.275,22.391Z" transform="translate(160.987 37.285)" fill="#fff"/><path d="M620.075,194.107l8.306-20.052,20.756,16.451-8.306,20.052Z" transform="translate(158.356 44.451)" fill="#fff"/><path d="M609.775,219.826l7.336-17.712,19.716,15.626-7.336,17.712Z" transform="translate(155.726 51.617)" fill="#fff"/><path d="M599.475,245.546l6.367-15.372,18.675,14.8-6.367,15.372Z" transform="translate(153.095 58.782)" fill="#fff"/><path d="M589.175,271.265l5.4-13.032,17.634,13.976-5.4,13.032Z" transform="translate(150.465 65.948)" fill="#fff"/><path d="M578.875,296.984l4.429-10.692L599.9,299.443l-4.429,10.692Z" transform="translate(147.835 73.114)" fill="#fff"/><path d="M568.575,322.7l3.46-8.352,15.553,12.327-3.46,8.352Z" transform="translate(145.204 80.28)" fill="#fff"/><path d="M558.275,348.423l2.491-6.013,14.512,11.5-2.491,6.013Z" transform="translate(142.574 87.445)" fill="#fff"/><path d="M547.975,374.142l1.521-3.673,13.472,10.677-1.52,3.673Z" transform="translate(139.943 94.611)" fill="#fff"/><path d="M537.675,399.861l.552-1.333,12.432,9.852-.552,1.333Z" transform="translate(137.313 101.777)" fill="#fff"/><path d="M687.307,151.117l14.652-25.376,21.2,21.879L708.51,173Z" transform="translate(175.526 32.112)" fill="#fff"/><path d="M673.676,175.3l13.385-23.183L707.34,173.04l-13.385,23.182Z" transform="translate(172.045 38.847)" fill="#fff"/><path d="M660.045,199.478l12.118-20.99,19.355,19.972L679.4,219.45Z" transform="translate(168.564 45.583)" fill="#fff"/><path d="M646.414,223.659l10.852-18.8L675.7,223.881l-10.852,18.8Z" transform="translate(165.083 52.318)" fill="#fff"/><path d="M632.783,247.839l9.586-16.6L659.877,249.3l-9.586,16.6Z" transform="translate(161.602 59.054)" fill="#fff"/><path d="M619.152,272.02l8.319-14.409,16.583,17.111-8.319,14.411Z" transform="translate(158.12 65.789)" fill="#fff"/><path d="M605.521,296.2l7.053-12.216,15.66,16.158-7.053,12.216Z" transform="translate(154.639 72.525)" fill="#fff"/><path d="M591.89,320.381l5.787-10.023,14.734,15.205-5.786,10.023Z" transform="translate(151.158 79.26)" fill="#fff"/><path d="M578.259,344.561l4.521-7.83,13.812,14.251-4.521,7.83Z" transform="translate(147.677 85.995)" fill="#fff"/><path d="M564.628,368.742l3.254-5.637,12.888,13.3-3.254,5.637Z" transform="translate(144.196 92.731)" fill="#fff"/><path d="M551,392.922l1.987-3.442,11.964,12.344-1.987,3.442Z" transform="translate(140.715 99.467)" fill="#fff"/><path d="M537.366,417.1l.722-1.249,11.039,11.39-.721,1.25Z" transform="translate(137.234 106.202)" fill="#fff"/><path d="M718.824,189.643,736.661,166.4l18.167,24.46L736.99,214.1Z" transform="translate(183.575 42.495)" fill="#fff"/><path d="M702.1,211.871l16.3-21.237,17.375,23.393-16.3,21.237Z" transform="translate(179.303 48.685)" fill="#fff"/><path d="M685.366,234.1l14.755-19.229L716.7,237.2l-14.754,19.227Z" transform="translate(175.031 54.874)" fill="#fff"/><path d="M668.637,256.328l13.213-17.219,15.791,21.261-13.213,17.219Z" transform="translate(170.758 61.064)" fill="#fff"/><path d="M651.909,278.556l11.671-15.21,15,20.2-11.671,15.209Z" transform="translate(166.486 67.254)" fill="#fff"/><path d="M635.18,300.784l10.128-13.2,14.208,19.129-10.128,13.2Z" transform="translate(162.214 73.444)" fill="#fff"/><path d="M618.451,323.012l8.587-11.192,13.416,18.065-8.587,11.19Z" transform="translate(157.941 79.634)" fill="#fff"/><path d="M601.722,345.24l7.045-9.182,12.625,17-7.047,9.182Z" transform="translate(153.669 85.823)" fill="#fff"/><path d="M584.993,367.468l5.5-7.172,11.833,15.932-5.5,7.172Z" transform="translate(149.397 92.013)" fill="#fff"/><path d="M568.265,389.7l3.962-5.163L583.268,399.4l-3.962,5.163Z" transform="translate(145.125 98.203)" fill="#fff"/><path d="M551.536,411.924l2.42-3.154,10.249,13.8-2.419,3.154Z" transform="translate(140.852 104.393)" fill="#fff"/><path d="M534.807,434.152l.879-1.145,9.458,12.734-.879,1.145Z" transform="translate(136.58 110.583)" fill="#fff"/><path d="M744.986,231.869l20.72-20.72,14.818,26.622-20.72,20.72Z" transform="translate(190.256 53.924)" fill="#fff"/><path d="M725.445,251.764l18.929-18.929,14.173,25.46-18.93,18.929Z" transform="translate(185.266 59.462)" fill="#fff"/><path d="M705.9,271.66l17.138-17.138,13.527,24.3L719.432,295.96Z" transform="translate(180.276 65)" fill="#fff"/><path d="M686.365,291.555l15.347-15.347,12.881,23.14L699.246,314.7Z" transform="translate(175.285 70.539)" fill="#fff"/><path d="M666.824,311.45l13.555-13.556,12.236,21.98-13.557,13.556Z" transform="translate(170.295 76.077)" fill="#fff"/><path d="M647.284,331.346l11.765-11.765,11.59,20.82-11.765,11.765Z" transform="translate(165.305 81.615)" fill="#fff"/><path d="M627.743,351.241l9.974-9.974,10.944,19.66-9.975,9.974Z" transform="translate(160.315 87.154)" fill="#fff"/><path d="M608.2,371.137l8.184-8.184,10.3,18.5-8.184,8.184Z" transform="translate(155.324 92.692)" fill="#fff"/><path d="M588.663,391.032l6.392-6.392,9.653,17.339-6.392,6.394Z" transform="translate(150.334 98.23)" fill="#fff"/><path d="M569.122,410.927l4.6-4.6,9.006,16.181-4.6,4.6Z" transform="translate(145.344 103.768)" fill="#fff"/><path d="M549.582,430.822l2.811-2.811,8.361,15.019-2.811,2.812Z" transform="translate(140.354 109.307)" fill="#fff"/><path d="M530.041,450.718l1.021-1.021,7.714,13.861-1.019,1.019Z" transform="translate(135.363 114.845)" fill="#fff"/><path d="M765.345,277.072l23.247-17.838,11.217,28.328L776.562,305.4Z" transform="translate(195.456 66.204)" fill="#fff"/><path d="M743.328,294.294,764.565,278l10.728,27.092-21.237,16.3Z" transform="translate(189.833 70.996)" fill="#fff"/><path d="M721.31,311.516l19.229-14.754,10.239,25.858-19.229,14.755Z" transform="translate(184.21 75.788)" fill="#fff"/><path d="M699.292,328.739l17.219-13.213,9.751,24.624-17.219,13.213Z" transform="translate(178.587 80.58)" fill="#fff"/><path d="M677.275,345.961l15.21-11.671,9.261,23.39-15.209,11.671Z" transform="translate(172.964 85.372)" fill="#fff"/><path d="M655.257,363.183l13.2-10.128,8.773,22.155-13.2,10.128Z" transform="translate(167.341 90.164)" fill="#fff"/><path d="M633.239,380.4l11.192-8.587,8.283,20.92-11.191,8.588Z" transform="translate(161.718 94.956)" fill="#fff"/><path d="M611.222,397.627l9.182-7.045,7.795,19.686-9.182,7.045Z" transform="translate(156.095 99.748)" fill="#fff"/><path d="M589.2,414.849l7.172-5.5,7.306,18.452-7.172,5.5Z" transform="translate(150.472 104.54)" fill="#fff"/><path d="M567.187,432.071l5.163-3.962,6.818,17.218L574,449.289Z" transform="translate(144.849 109.332)" fill="#fff"/><path d="M545.169,449.294l3.153-2.42,6.33,15.984-3.155,2.419Z" transform="translate(139.227 114.124)" fill="#fff"/><path d="M523.151,466.516l1.145-.879,5.84,14.748-1.145.879Z" transform="translate(133.604 118.916)" fill="#fff"/><path d="M779.554,324.479l25.376-14.652,7.423,29.549-25.376,14.652Z" transform="translate(199.084 79.125)" fill="#fff"/><path d="M755.436,338.733l23.183-13.385,7.1,28.261-23.182,13.385Z" transform="translate(192.925 83.088)" fill="#fff"/><path d="M731.317,352.987l20.99-12.118,6.776,26.973-20.99,12.119Z" transform="translate(186.766 87.052)" fill="#fff"/><path d="M707.2,367.241,726,356.39l6.453,25.685-18.8,10.853Z" transform="translate(180.606 91.016)" fill="#fff"/><path d="M683.081,381.5l16.6-9.586,6.13,24.4-16.6,9.586Z" transform="translate(174.447 94.979)" fill="#fff"/><path d="M658.963,395.75l14.409-8.319,5.806,23.11-14.409,8.319Z" transform="translate(168.287 98.943)" fill="#fff"/><path d="M634.845,410l12.216-7.053,5.482,21.822-12.216,7.054Z" transform="translate(162.128 102.907)" fill="#fff"/><path d="M610.727,424.259l10.023-5.787,5.158,20.536-10.023,5.787Z" transform="translate(155.969 106.87)" fill="#fff"/><path d="M586.609,438.513l7.83-4.521,4.836,19.248-7.83,4.521Z" transform="translate(149.809 110.834)" fill="#fff"/><path d="M562.49,452.767l5.637-3.254,4.512,17.96L567,470.727Z" transform="translate(143.65 114.798)" fill="#fff"/><path d="M538.372,467.021l3.442-1.987L546,481.706l-3.443,1.989Z" transform="translate(137.491 118.762)" fill="#fff"/><path d="M514.254,481.276l1.249-.722,3.865,15.385-1.249.722Z" transform="translate(131.331 122.725)" fill="#fff"/><path d="M787.369,373.278l3.5,30.265,27.072-11.213-3.5-30.265Z" transform="translate(201.08 92.465)" fill="#fff"/><path d="M761.562,384.32l24.733-10.244,3.349,28.947-24.731,10.244Z" transform="translate(194.49 95.533)" fill="#fff"/><path d="M735.756,395.363l22.392-9.275,3.2,27.627-22.392,9.275Z" transform="translate(187.899 98.6)" fill="#fff"/><path d="M709.951,406.405,730,398.1l3.044,26.309L713,432.714Z" transform="translate(181.309 101.668)" fill="#fff"/><path d="M684.144,417.448l17.712-7.336,2.893,24.99-17.712,7.336Z" transform="translate(174.718 104.735)" fill="#fff"/><path d="M658.338,428.49l15.372-6.367,2.739,23.67-15.372,6.367Z" transform="translate(168.128 107.803)" fill="#fff"/><path d="M632.532,439.533l13.032-5.4,2.587,22.352-13.032,5.4Z" transform="translate(161.538 110.87)" fill="#fff"/><path d="M606.726,450.575l10.692-4.429,2.434,21.033-10.692,4.429Z" transform="translate(154.947 113.938)" fill="#fff"/><path d="M580.92,461.618l8.352-3.46,2.282,19.715-8.352,3.46Z" transform="translate(148.357 117.006)" fill="#fff"/><path d="M555.114,472.66l6.013-2.491,2.129,18.4-6.013,2.491Z" transform="translate(141.766 120.073)" fill="#fff"/><path d="M529.308,483.7l3.673-1.522,1.976,17.077-3.673,1.52Z" transform="translate(135.176 123.141)" fill="#fff"/><path d="M503.5,494.745l1.333-.552,1.824,15.758-1.333.552Z" transform="translate(128.586 126.208)" fill="#fff"/><path d="M788.753,422.634l-.478,30.464,28.3-7.585.478-30.463Z" transform="translate(201.311 105.997)" fill="#fff"/><path d="M761.7,430.276l25.857-6.928-.457,29.136-25.857,6.928Z" transform="translate(194.407 108.116)" fill="#fff"/><path d="M734.639,437.918l23.41-6.273-.436,27.809-23.41,6.272Z" transform="translate(187.503 110.235)" fill="#fff"/><path d="M707.583,445.56l20.965-5.618-.416,26.481-20.965,5.618Z" transform="translate(180.598 112.354)" fill="#fff"/><path d="M680.527,453.2l18.518-4.963-.394,25.154-18.518,4.963Z" transform="translate(173.694 114.473)" fill="#fff"/><path d="M653.47,460.843l16.071-4.306-.373,23.826L653.1,484.669Z" transform="translate(166.789 116.592)" fill="#fff"/><path d="M626.413,468.485l13.626-3.651-.353,22.5-13.626,3.652Z" transform="translate(159.885 118.711)" fill="#fff"/><path d="M599.357,476.127l11.179-3L610.2,494.3l-11.179,3Z" transform="translate(152.98 120.83)" fill="#fff"/><path d="M572.3,483.769l8.732-2.34-.311,19.844-8.732,2.34Z" transform="translate(146.076 122.949)" fill="#fff"/><path d="M545.244,491.411l6.287-1.685-.291,18.516-6.286,1.685Z" transform="translate(139.172 125.067)" fill="#fff"/><path d="M518.187,499.052l3.84-1.029-.27,17.189-3.84,1.029Z" transform="translate(132.267 127.186)" fill="#fff"/><path d="M491.131,506.694l1.393-.373-.249,15.86-1.393.373Z" transform="translate(125.363 129.306)" fill="#fff"/><path d="M784.3,471.7l29.051-3.825L808.9,498.021l-29.052,3.824Z" transform="translate(199.159 119.488)" fill="#fff"/><path d="M756.422,475.814l26.54-3.494-4.256,28.827-26.54,3.494Z" transform="translate(192.09 120.622)" fill="#fff"/><path d="M728.548,479.925l24.029-3.164-4.061,27.514-24.03,3.164Z" transform="translate(185.021 121.756)" fill="#fff"/><path d="M700.672,484.035l21.518-2.833-3.868,26.2L696.8,510.235Z" transform="translate(177.952 122.891)" fill="#fff"/><path d="M672.8,488.145l19.008-2.5L688.13,510.53l-19.008,2.5Z" transform="translate(170.882 124.025)" fill="#fff"/><path d="M644.922,492.256l16.5-2.172-3.481,23.574-16.5,2.172Z" transform="translate(163.813 125.159)" fill="#fff"/><path d="M617.047,496.366l13.985-1.842-3.285,22.26-13.986,1.842Z" transform="translate(156.744 126.293)" fill="#fff"/><path d="M589.171,500.476l11.474-1.51-3.092,20.946-11.474,1.51Z" transform="translate(149.674 127.427)" fill="#fff"/><path d="M561.3,504.587l8.963-1.18-2.9,19.633-8.963,1.18Z" transform="translate(142.605 128.561)" fill="#fff"/><path d="M533.421,508.7l6.453-.85-2.705,18.32-6.451.85Z" transform="translate(135.536 129.695)" fill="#fff"/><path d="M505.546,512.807l3.942-.518-2.511,17.005-3.942.518Z" transform="translate(128.466 130.83)" fill="#fff"/><path d="M477.671,516.918l1.43-.188-2.316,15.692-1.43.188Z" transform="translate(121.397 131.964)" fill="#fff"/><path d="M773.368,519.647h29.3l-8.346,29.3h-29.3Z" transform="translate(195.373 132.709)" fill="#fff"/><path d="M745.151,520.155h26.77l-7.983,28.025H737.169Z" transform="translate(188.26 132.839)" fill="#fff"/><path d="M716.934,520.664h24.236l-7.618,26.748H709.315Z" transform="translate(181.147 132.969)" fill="#fff"/><path d="M688.717,521.173h21.7l-7.255,25.472h-21.7Z" transform="translate(174.034 133.098)" fill="#fff"/><path d="M660.5,521.681h19.171l-6.891,24.194H653.61Z" transform="translate(166.92 133.228)" fill="#fff"/><path d="M632.283,522.19h16.639L642.4,545.107H625.757Z" transform="translate(159.807 133.358)" fill="#fff"/><path d="M604.067,522.7h14.107l-6.164,21.64H597.9Z" transform="translate(152.694 133.488)" fill="#fff"/><path d="M575.85,523.207h11.574l-5.8,20.364H570.05Z" transform="translate(145.581 133.618)" fill="#fff"/><path d="M547.633,523.715h9.041L551.237,542.8H542.2Z" transform="translate(138.468 133.748)" fill="#fff"/><path d="M519.416,524.224h6.508l-5.072,17.81h-6.509Z" transform="translate(131.354 133.878)" fill="#fff"/><path d="M491.2,524.733h3.976l-4.709,16.532H486.49Z" transform="translate(124.241 134.008)" fill="#fff"/><path d="M462.982,525.241h1.442L460.08,540.5h-1.442Z" transform="translate(117.128 134.138)" fill="#fff"/><path d="M756.15,566.421l29.052,3.825-12.1,27.961-29.052-3.824Z" transform="translate(190.018 144.654)" fill="#fff"/><path d="M728.074,563.252l26.54,3.494-11.571,26.744L716.5,590Z" transform="translate(182.982 143.845)" fill="#fff"/><path d="M700,560.083l24.029,3.164-11.045,25.524-24.029-3.164Z" transform="translate(175.947 143.035)" fill="#fff"/><path d="M671.923,556.913l21.518,2.833-10.518,24.306L661.4,581.22Z" transform="translate(168.911 142.226)" fill="#fff"/><path d="M643.847,553.744l19.008,2.5-9.99,23.088-19.008-2.5Z" transform="translate(161.876 141.417)" fill="#fff"/><path d="M615.771,550.575l16.5,2.172-9.463,21.869-16.5-2.172Z" transform="translate(154.84 140.607)" fill="#fff"/><path d="M587.7,547.406l13.985,1.842-8.935,20.65-13.986-1.84Z" transform="translate(147.805 139.798)" fill="#fff"/><path d="M559.62,544.237l11.474,1.51-8.409,19.433-11.474-1.511Z" transform="translate(140.77 138.989)" fill="#fff"/><path d="M531.544,541.068l8.963,1.18-7.881,18.214-8.963-1.18Z" transform="translate(133.734 138.179)" fill="#fff"/><path d="M503.468,537.9l6.453.85-7.354,17-6.453-.85Z" transform="translate(126.699 137.37)" fill="#fff"/><path d="M475.392,534.729l3.942.519-6.827,15.778-3.942-.52Z" transform="translate(119.663 136.561)" fill="#fff"/><path d="M447.317,531.56l1.43.188-6.3,14.559-1.431-.188Z" transform="translate(112.628 135.751)" fill="#fff"/><path d="M732.938,610.448l28.3,7.584L745.6,644.175l-28.3-7.584Z" transform="translate(183.184 155.898)" fill="#fff"/><path d="M705.484,603.655l25.857,6.928-14.963,25-25.857-6.928Z" transform="translate(176.347 154.163)" fill="#fff"/><path d="M678.03,596.863l23.41,6.273L687.159,627l-23.41-6.273Z" transform="translate(169.51 152.428)" fill="#fff"/><path d="M650.576,590.07l20.965,5.618-13.6,22.725L636.976,612.8Z" transform="translate(162.672 150.694)" fill="#fff"/><path d="M623.121,583.277l18.518,4.962-12.918,21.586L610.2,604.864Z" transform="translate(155.835 148.959)" fill="#fff"/><path d="M595.667,576.485l16.071,4.306L599.5,601.238l-16.071-4.306Z" transform="translate(148.998 147.224)" fill="#fff"/><path d="M568.213,569.692l13.626,3.651L570.284,592.65,556.658,589Z" transform="translate(142.161 145.489)" fill="#fff"/><path d="M540.759,562.9l11.179,3-10.873,18.169-11.179-3Z" transform="translate(135.323 143.755)" fill="#fff"/><path d="M513.3,556.107l8.732,2.34-10.191,17.029-8.732-2.34Z" transform="translate(128.486 142.02)" fill="#fff"/><path d="M485.85,549.314,492.137,551l-9.51,15.89-6.287-1.685Z" transform="translate(121.649 140.285)" fill="#fff"/><path d="M458.4,542.521l3.84,1.029L453.408,558.3l-3.84-1.029Z" transform="translate(114.812 138.55)" fill="#fff"/><path d="M430.942,535.729l1.394.373-8.145,13.612-1.395-.374Z" transform="translate(107.975 136.816)" fill="#fff"/><path d="M704.131,650.974,731.2,662.187l-18.924,23.879-27.071-11.214Z" transform="translate(174.99 166.247)" fill="#fff"/><path d="M677.768,640.674,702.5,650.918l-18.1,22.838-24.731-10.245Z" transform="translate(168.468 163.617)" fill="#fff"/><path d="M651.4,630.374l22.392,9.275-17.275,21.8-22.391-9.275Z" transform="translate(161.946 160.987)" fill="#fff"/><path d="M625.042,620.074l20.052,8.306-16.45,20.756-20.052-8.306Z" transform="translate(155.424 158.356)" fill="#fff"/><path d="M598.679,609.775l17.712,7.336-15.626,19.716-17.712-7.337Z" transform="translate(148.902 155.726)" fill="#fff"/><path d="M572.316,599.475l15.372,6.367-14.8,18.675-15.372-6.367Z" transform="translate(142.379 153.095)" fill="#fff"/><path d="M545.952,589.175l13.032,5.4-13.976,17.634-13.032-5.4Z" transform="translate(135.857 150.465)" fill="#fff"/><path d="M519.589,578.875l10.692,4.429L517.13,599.9l-10.692-4.429Z" transform="translate(129.335 147.835)" fill="#fff"/><path d="M493.226,568.575l8.352,3.46-12.327,15.553-8.352-3.46Z" transform="translate(122.813 145.204)" fill="#fff"/><path d="M466.863,558.275l6.013,2.491-11.5,14.512-6.013-2.491Z" transform="translate(116.291 142.574)" fill="#fff"/><path d="M440.5,547.975l3.673,1.521L433.5,562.968l-3.673-1.521Z" transform="translate(109.769 139.943)" fill="#fff"/><path d="M414.137,537.675l1.333.552-9.852,12.432-1.333-.552Z" transform="translate(103.247 137.313)" fill="#fff"/><path d="M670.219,687.307,695.6,701.958l-21.879,21.2L648.34,708.51Z" transform="translate(165.575 175.526)" fill="#fff"/><path d="M645.4,673.676l23.183,13.385L647.656,707.34l-23.182-13.385Z" transform="translate(159.48 172.045)" fill="#fff"/><path d="M620.578,660.045l20.99,12.118L621.6,691.518,600.606,679.4Z" transform="translate(153.384 168.564)" fill="#fff"/><path d="M595.757,646.414l18.8,10.852L595.535,675.7l-18.8-10.851Z" transform="translate(147.289 165.083)" fill="#fff"/><path d="M570.936,632.783l16.6,9.586-18.065,17.508-16.6-9.586Z" transform="translate(141.194 161.602)" fill="#fff"/><path d="M546.116,619.152l14.409,8.319-17.111,16.584L529,635.735Z" transform="translate(135.098 158.121)" fill="#fff"/><path d="M521.295,605.521l12.216,7.053-16.158,15.66-12.216-7.053Z" transform="translate(129.003 154.64)" fill="#fff"/><path d="M496.474,591.89l10.023,5.787-15.205,14.734-10.023-5.786Z" transform="translate(122.908 151.158)" fill="#fff"/><path d="M471.654,578.259l7.83,4.521-14.251,13.812-7.83-4.521Z" transform="translate(116.813 147.677)" fill="#fff"/><path d="M446.833,564.628l5.637,3.254-13.3,12.888-5.637-3.254Z" transform="translate(110.717 144.196)" fill="#fff"/><path d="M422.012,551l3.442,1.987L413.11,564.948l-3.442-1.987Z" transform="translate(104.622 140.715)" fill="#fff"/><path d="M397.192,537.366l1.249.722-11.39,11.039-1.25-.721Z" transform="translate(98.527 137.234)" fill="#fff"/><path d="M631.784,718.824l23.247,17.838-24.46,18.167L607.326,736.99Z" transform="translate(155.1 183.575)" fill="#fff"/><path d="M608.931,702.095l21.237,16.3-23.393,17.375-21.237-16.3Z" transform="translate(149.536 179.303)" fill="#fff"/><path d="M586.077,685.366l19.229,14.755L582.978,716.7,563.75,701.95Z" transform="translate(143.972 175.03)" fill="#fff"/><path d="M563.223,668.637l17.219,13.213-21.261,15.791-17.219-13.213Z" transform="translate(138.408 170.758)" fill="#fff"/><path d="M540.37,651.908l15.21,11.671-20.2,15-15.209-11.671Z" transform="translate(132.843 166.486)" fill="#fff"/><path d="M517.516,635.18l13.2,10.13-19.129,14.207-13.2-10.128Z" transform="translate(127.279 162.214)" fill="#fff"/><path d="M494.662,618.451l11.192,8.587-18.065,13.416L476.6,631.867Z" transform="translate(121.715 157.942)" fill="#fff"/><path d="M471.809,601.722l9.182,7.045-17,12.625-9.182-7.046Z" transform="translate(116.151 153.669)" fill="#fff"/><path d="M448.955,584.993l7.172,5.5L440.195,602.33l-7.172-5.5Z" transform="translate(110.586 149.397)" fill="#fff"/><path d="M426.1,568.264l5.163,3.962L416.4,583.267l-5.163-3.962Z" transform="translate(105.022 145.125)" fill="#fff"/><path d="M403.248,551.535l3.154,2.421L392.6,564.2l-3.154-2.419Z" transform="translate(99.458 140.853)" fill="#fff"/><path d="M380.394,534.807l1.145.879L368.8,545.143l-1.145-.879Z" transform="translate(93.894 136.58)" fill="#fff"/><path d="M589.484,744.986l20.72,20.72-26.622,14.819-20.72-20.72Z" transform="translate(143.745 190.256)" fill="#fff"/><path d="M568.989,725.445l18.929,18.929-25.46,14.174-18.929-18.93Z" transform="translate(138.808 185.266)" fill="#fff"/><path d="M548.493,705.9l17.138,17.138-24.3,13.527-17.137-17.138Z" transform="translate(133.87 180.276)" fill="#fff"/><path d="M528,686.365l15.347,15.347L520.2,714.593l-15.347-15.347Z" transform="translate(128.932 175.285)" fill="#fff"/><path d="M507.5,666.824l13.556,13.557-21.98,12.235-13.556-13.557Z" transform="translate(123.994 170.295)" fill="#fff"/><path d="M487.006,647.284l11.765,11.766-20.82,11.59-11.766-11.765Z" transform="translate(119.056 165.305)" fill="#fff"/><path d="M466.511,627.743l9.974,9.974-19.66,10.944-9.974-9.975Z" transform="translate(114.118 160.315)" fill="#fff"/><path d="M446.015,608.2l8.184,8.184-18.5,10.3-8.184-8.184Z" transform="translate(109.18 155.324)" fill="#fff"/><path d="M425.519,588.662l6.392,6.393-17.339,9.653-6.394-6.392Z" transform="translate(104.242 150.334)" fill="#fff"/><path d="M405.024,569.122l4.6,4.6-16.181,9.006-4.6-4.6Z" transform="translate(99.304 145.344)" fill="#fff"/><path d="M384.528,549.582l2.811,2.811-15.02,8.361-2.812-2.811Z" transform="translate(94.366 140.354)" fill="#fff"/><path d="M364.032,530.041l1.021,1.021-13.861,7.714-1.019-1.019Z" transform="translate(89.428 135.363)" fill="#fff"/><path d="M544.042,765.345l17.838,23.247-28.328,11.217-17.838-23.247Z" transform="translate(131.704 195.456)" fill="#fff"/><path d="M526.255,743.327l16.3,21.237-27.093,10.728-16.3-21.237Z" transform="translate(127.477 189.833)" fill="#fff"/><path d="M508.468,721.31l14.754,19.229-25.858,10.239L482.61,731.549Z" transform="translate(123.25 184.21)" fill="#fff"/><path d="M490.682,699.292l13.213,17.219-24.624,9.751-13.213-17.219Z" transform="translate(119.023 178.587)" fill="#fff"/><path d="M472.895,677.275l11.671,15.21-23.39,9.261L449.5,686.535Z" transform="translate(114.796 172.964)" fill="#fff"/><path d="M455.108,655.257l10.128,13.2-22.155,8.773-10.128-13.2Z" transform="translate(110.569 167.341)" fill="#fff"/><path d="M437.321,633.239l8.587,11.192-20.92,8.283-8.588-11.19Z" transform="translate(106.341 161.718)" fill="#fff"/><path d="M419.534,611.221l7.045,9.182L406.893,628.2l-7.045-9.182Z" transform="translate(102.114 156.095)" fill="#fff"/><path d="M401.747,589.2l5.5,7.172L388.8,603.682l-5.5-7.172Z" transform="translate(97.887 150.472)" fill="#fff"/><path d="M383.96,567.186l3.962,5.163L370.7,579.167,366.743,574Z" transform="translate(93.66 144.85)" fill="#fff"/><path d="M366.173,545.169l2.42,3.154-15.983,6.329-2.419-3.155Z" transform="translate(89.433 139.227)" fill="#fff"/><path d="M348.386,523.151l.879,1.145-14.748,5.84-.879-1.145Z" transform="translate(85.205 133.604)" fill="#fff"/><path d="M496.236,779.554l14.652,25.376-29.549,7.423-14.652-25.376Z" transform="translate(119.184 199.084)" fill="#fff"/><path d="M481.462,755.435l13.385,23.183-28.261,7.1L453.2,762.536Z" transform="translate(115.74 192.925)" fill="#fff"/><path d="M466.688,731.317l12.118,20.99-26.973,6.776-12.12-20.99Z" transform="translate(112.295 186.766)" fill="#fff"/><path d="M451.914,707.2,462.766,726l-25.685,6.452-10.853-18.8Z" transform="translate(108.851 180.606)" fill="#fff"/><path d="M437.141,683.081l9.586,16.6-24.4,6.13-9.586-16.6Z" transform="translate(105.407 174.447)" fill="#fff"/><path d="M422.367,658.963l8.319,14.409-23.11,5.806-8.319-14.409Z" transform="translate(101.963 168.288)" fill="#fff"/><path d="M407.593,634.845l7.053,12.216-21.822,5.482-7.054-12.216Z" transform="translate(98.519 162.128)" fill="#fff"/><path d="M392.819,610.727l5.787,10.023-20.536,5.158-5.787-10.023Z" transform="translate(95.075 155.969)" fill="#fff"/><path d="M378.045,586.608l4.521,7.83-19.247,4.836-4.521-7.83Z" transform="translate(91.631 149.809)" fill="#fff"/><path d="M363.271,562.49l3.254,5.636-17.959,4.512L345.312,567Z" transform="translate(88.187 143.65)" fill="#fff"/><path d="M348.5,538.372l1.987,3.442L333.813,546l-1.988-3.443Z" transform="translate(84.742 137.491)" fill="#fff"/><path d="M333.724,514.254l.722,1.249-15.385,3.865-.722-1.249Z" transform="translate(81.298 131.331)" fill="#fff"/><path d="M416.618,790.871l11.213,27.072,30.266-3.5-11.214-27.072Z" transform="translate(106.397 201.08)" fill="#fff"/><path d="M435.375,761.562l10.244,24.732-28.947,3.349-10.244-24.731Z" transform="translate(103.795 194.49)" fill="#fff"/><path d="M423.867,735.756l9.275,22.392-27.627,3.2-9.275-22.392Z" transform="translate(101.193 187.899)" fill="#fff"/><path d="M412.359,709.95,420.665,730l-26.309,3.044L386.05,713Z" transform="translate(98.59 181.309)" fill="#fff"/><path d="M400.851,684.144l7.336,17.712-24.99,2.892-7.336-17.712Z" transform="translate(95.988 174.718)" fill="#fff"/><path d="M389.343,658.338l6.367,15.372-23.67,2.739-6.367-15.372Z" transform="translate(93.386 168.128)" fill="#fff"/><path d="M377.835,632.532l5.4,13.032-22.352,2.587-5.4-13.032Z" transform="translate(90.784 161.538)" fill="#fff"/><path d="M366.327,606.726l4.429,10.692-21.033,2.434-4.429-10.692Z" transform="translate(88.182 154.947)" fill="#fff"/><path d="M354.82,580.92l3.46,8.352-19.715,2.282L335.1,583.2Z" transform="translate(85.58 148.357)" fill="#fff"/><path d="M343.311,555.114l2.491,6.013-18.4,2.129-2.491-6.013Z" transform="translate(82.978 141.766)" fill="#fff"/><path d="M331.8,529.308l1.521,3.673-17.077,1.976-1.52-3.673Z" transform="translate(80.376 135.176)" fill="#fff"/><path d="M320.3,503.5l.552,1.333L305.09,506.66l-.552-1.333Z" transform="translate(77.774 128.586)" fill="#fff"/><path d="M373.95,816.578l30.463.478-7.584-28.3-30.464-.478Z" transform="translate(93.563 201.312)" fill="#fff"/><path d="M388.784,761.7l6.928,25.857-29.136-.457-6.928-25.857Z" transform="translate(91.848 194.407)" fill="#fff"/><path d="M380.738,734.639l6.273,23.41-27.809-.436L352.93,734.2Z" transform="translate(90.132 187.503)" fill="#fff"/><path d="M372.693,707.583l5.618,20.965-26.481-.415-5.618-20.965Z" transform="translate(88.416 180.598)" fill="#fff"/><path d="M364.648,680.526l4.963,18.518-25.154-.394-4.963-18.518Z" transform="translate(86.701 173.694)" fill="#fff"/><path d="M356.6,653.47l4.306,16.071-23.826-.373L332.777,653.1Z" transform="translate(84.985 166.79)" fill="#fff"/><path d="M348.557,626.413l3.651,13.626-22.5-.353-3.652-13.626Z" transform="translate(83.27 159.885)" fill="#fff"/><path d="M340.512,599.356l3,11.179-21.171-.331-3-11.179Z" transform="translate(81.554 152.98)" fill="#fff"/><path d="M332.467,572.3l2.34,8.732-19.844-.311-2.34-8.732Z" transform="translate(79.838 146.076)" fill="#fff"/><path d="M324.422,545.243l1.685,6.287-18.516-.291-1.685-6.286Z" transform="translate(78.123 139.172)" fill="#fff"/><path d="M316.377,518.187l1.029,3.84-17.189-.27-1.029-3.84Z" transform="translate(76.407 132.267)" fill="#fff"/><path d="M308.331,491.13l.373,1.393-15.861-.249-.373-1.393Z" transform="translate(74.692 125.363)" fill="#fff"/><path d="M346.929,784.3l3.825,29.052-30.142-4.45-3.824-29.052Z" transform="translate(80.902 199.159)" fill="#fff"/><path d="M342.484,756.422l3.494,26.54-28.827-4.256-3.494-26.54Z" transform="translate(80.102 192.09)" fill="#fff"/><path d="M338.039,728.547l3.164,24.029-27.514-4.061-3.164-24.031Z" transform="translate(79.303 185.021)" fill="#fff"/><path d="M333.594,700.672l2.833,21.518-26.2-3.868L307.394,696.8Z" transform="translate(78.503 177.952)" fill="#fff"/><path d="M329.15,672.8l2.5,19.008-24.887-3.675-2.5-19.008Z" transform="translate(77.703 170.882)" fill="#fff"/><path d="M324.7,644.922l2.172,16.5L303.3,657.937l-2.172-16.5Z" transform="translate(76.904 163.813)" fill="#fff"/><path d="M320.26,617.047l1.842,13.985-22.26-3.285L298,613.76Z" transform="translate(76.104 156.744)" fill="#fff"/><path d="M315.815,589.172l1.51,11.474-20.946-3.092-1.51-11.474Z" transform="translate(75.304 149.674)" fill="#fff"/><path d="M311.37,561.3l1.18,8.964-19.633-2.9-1.18-8.964Z" transform="translate(74.505 142.605)" fill="#fff"/><path d="M306.926,533.421l.85,6.453-18.32-2.7-.85-6.453Z" transform="translate(73.705 135.536)" fill="#fff"/><path d="M302.48,505.546l.518,3.942-17.005-2.511-.518-3.942Z" transform="translate(72.905 128.467)" fill="#fff"/><path d="M298.036,477.67l.188,1.43-15.692-2.316-.188-1.43Z" transform="translate(72.106 121.397)" fill="#fff"/><path d="M298.037,773.368v29.3l-29.3-8.346v-29.3Z" transform="translate(68.63 195.373)" fill="#fff"/><path d="M297.269,745.151v26.77l-28.025-7.983V737.169Z" transform="translate(68.76 188.26)" fill="#fff"/><path d="M296.5,716.934V741.17l-26.748-7.618V709.315Z" transform="translate(68.89 181.147)" fill="#fff"/><path d="M295.732,688.717v21.7l-25.472-7.255v-21.7Z" transform="translate(69.02 174.033)" fill="#fff"/><path d="M294.964,660.5v19.171L270.77,672.78V653.609Z" transform="translate(69.15 166.921)" fill="#fff"/><path d="M294.2,632.283v16.639l-22.917-6.528V625.757Z" transform="translate(69.28 159.807)" fill="#fff"/><path d="M293.427,604.067v14.107l-21.64-6.164V597.9Z" transform="translate(69.409 152.694)" fill="#fff"/><path d="M292.659,575.85v11.573l-20.364-5.8V570.05Z" transform="translate(69.539 145.581)" fill="#fff"/><path d="M291.89,547.633v9.041L272.8,551.237V542.2Z" transform="translate(69.669 138.468)" fill="#fff"/><path d="M291.122,519.416v6.508l-17.81-5.072v-6.509Z" transform="translate(69.799 131.354)" fill="#fff"/><path d="M290.353,491.2v3.976l-16.532-4.709V486.49Z" transform="translate(69.929 124.241)" fill="#fff"/><path d="M289.585,462.982v1.442L274.33,460.08v-1.442Z" transform="translate(70.059 117.128)" fill="#fff"/><path d="M251.768,756.15,247.943,785.2l-27.961-12.1,3.824-29.052Z" transform="translate(56.18 190.017)" fill="#fff"/><path d="M254.622,728.074l-3.494,26.54-26.743-11.571,3.494-26.541Z" transform="translate(57.304 182.982)" fill="#fff"/><path d="M257.476,700l-3.164,24.029-25.524-11.045,3.164-24.029Z" transform="translate(58.429 175.947)" fill="#fff"/><path d="M260.33,671.922,257.5,693.441l-24.305-10.518,2.832-21.518Z" transform="translate(59.553 168.911)" fill="#fff"/><path d="M263.184,643.847l-2.5,19.008-23.088-9.99,2.5-19.008Z" transform="translate(60.678 161.876)" fill="#fff"/><path d="M266.038,615.771l-2.172,16.5L242,622.8l2.172-16.5Z" transform="translate(61.802 154.841)" fill="#fff"/><path d="M268.892,587.7l-1.842,13.985-20.65-8.935,1.84-13.986Z" transform="translate(62.926 147.805)" fill="#fff"/><path d="M271.747,559.619l-1.51,11.474L250.8,562.685l1.511-11.474Z" transform="translate(64.051 140.77)" fill="#fff"/><path d="M274.6,531.544l-1.18,8.963-18.214-7.881,1.18-8.964Z" transform="translate(65.175 133.734)" fill="#fff"/><path d="M277.455,503.468l-.85,6.453-17-7.354.85-6.453Z" transform="translate(66.3 126.699)" fill="#fff"/><path d="M280.309,475.392l-.518,3.942-15.778-6.827.52-3.942Z" transform="translate(67.424 119.663)" fill="#fff"/><path d="M283.163,447.316l-.188,1.43-14.559-6.3.188-1.431Z" transform="translate(68.549 112.628)" fill="#fff"/><path d="M208.136,732.938l-7.584,28.3L174.409,745.6l7.584-28.3Z" transform="translate(44.541 183.184)" fill="#fff"/><path d="M214.564,705.484l-6.928,25.857-25-14.963,6.928-25.858Z" transform="translate(46.641 176.347)" fill="#fff"/><path d="M220.991,678.029l-6.273,23.411-23.865-14.281,6.273-23.41Z" transform="translate(48.741 169.51)" fill="#fff"/><path d="M227.419,650.575,221.8,671.54l-22.725-13.6,5.617-20.964Z" transform="translate(50.841 162.673)" fill="#fff"/><path d="M233.846,623.121l-4.962,18.518L207.3,628.721,212.26,610.2Z" transform="translate(52.94 155.835)" fill="#fff"/><path d="M240.274,595.667l-4.306,16.071L215.52,599.5l4.306-16.071Z" transform="translate(55.04 148.998)" fill="#fff"/><path d="M246.7,568.213l-3.651,13.626-19.308-11.555,3.651-13.626Z" transform="translate(57.14 142.161)" fill="#fff"/><path d="M253.129,540.758l-3,11.179-18.169-10.873,3-11.179Z" transform="translate(59.24 135.324)" fill="#fff"/><path d="M259.557,513.3l-2.34,8.733-17.029-10.191,2.34-8.732Z" transform="translate(61.34 128.486)" fill="#fff"/><path d="M265.984,485.85l-1.685,6.287-15.889-9.51,1.685-6.287Z" transform="translate(63.44 121.649)" fill="#fff"/><path d="M272.412,458.4l-1.029,3.84-14.751-8.828,1.029-3.84Z" transform="translate(65.539 114.812)" fill="#fff"/><path d="M278.839,430.941l-.373,1.394-13.612-8.145.374-1.394Z" transform="translate(67.639 107.975)" fill="#fff"/><path d="M167.887,704.13,156.674,731.2,132.8,712.278l11.214-27.071Z" transform="translate(33.914 174.99)" fill="#fff"/><path d="M177.778,677.767,167.535,702.5,144.7,684.4l10.245-24.731Z" transform="translate(36.953 168.468)" fill="#fff"/><path d="M187.67,651.4,178.395,673.8l-21.8-17.275,9.275-22.391Z" transform="translate(39.992 161.946)" fill="#fff"/><path d="M197.561,625.041l-8.306,20.052L168.5,628.643l8.306-20.052Z" transform="translate(43.032 155.423)" fill="#fff"/><path d="M207.452,598.678l-7.336,17.712L180.4,600.765l7.336-17.712Z" transform="translate(46.071 148.901)" fill="#fff"/><path d="M217.343,572.315l-6.367,15.372-18.675-14.8,6.367-15.372Z" transform="translate(49.11 142.38)" fill="#fff"/><path d="M227.234,545.952l-5.4,13.032L204.2,545.008l5.4-13.032Z" transform="translate(52.149 135.857)" fill="#fff"/><path d="M237.125,519.589,232.7,530.281,216.1,517.13l4.429-10.692Z" transform="translate(55.189 129.335)" fill="#fff"/><path d="M247.016,493.226l-3.46,8.352L228,489.252l3.46-8.352Z" transform="translate(58.228 122.813)" fill="#fff"/><path d="M256.907,466.863l-2.491,6.013-14.512-11.5,2.491-6.013Z" transform="translate(61.267 116.291)" fill="#fff"/><path d="M266.8,440.5l-1.521,3.673L251.805,433.5l1.52-3.673Z" transform="translate(64.307 109.769)" fill="#fff"/><path d="M276.689,414.137l-.552,1.333-12.432-9.852.552-1.333Z" transform="translate(67.346 103.247)" fill="#fff"/><path d="M131.71,670.219,117.059,695.6l-21.2-21.879,14.652-25.376Z" transform="translate(24.48 165.575)" fill="#fff"/><path d="M144.9,645.4l-13.385,23.183-20.279-20.926,13.385-23.182Z" transform="translate(28.406 159.48)" fill="#fff"/><path d="M158.081,620.578l-12.118,20.99L126.607,621.6l12.118-20.99Z" transform="translate(32.333 153.384)" fill="#fff"/><path d="M171.266,595.757l-10.852,18.8-18.432-19.019,10.852-18.8Z" transform="translate(36.26 147.289)" fill="#fff"/><path d="M184.452,570.936l-9.586,16.6-17.508-18.065,9.586-16.6Z" transform="translate(40.187 141.194)" fill="#fff"/><path d="M197.637,546.116l-8.319,14.409-16.584-17.111L181.054,529Z" transform="translate(44.113 135.098)" fill="#fff"/><path d="M210.823,521.295l-7.053,12.216-15.66-16.158,7.053-12.216Z" transform="translate(48.04 129.003)" fill="#fff"/><path d="M224.008,496.474,218.221,506.5l-14.734-15.205,5.786-10.023Z" transform="translate(51.967 122.908)" fill="#fff"/><path d="M237.194,471.653l-4.521,7.83-13.812-14.251,4.521-7.83Z" transform="translate(55.893 116.813)" fill="#fff"/><path d="M250.379,446.833l-3.254,5.637-12.888-13.3,3.254-5.637Z" transform="translate(59.82 110.717)" fill="#fff"/><path d="M263.564,422.012l-1.987,3.442L249.613,413.11l1.987-3.442Z" transform="translate(63.747 104.622)" fill="#fff"/><path d="M276.75,397.191l-.722,1.249-11.039-11.39.721-1.25Z" transform="translate(67.674 98.527)" fill="#fff"/><path d="M100.224,631.784,82.386,655.032l-18.167-24.46,17.838-23.246Z" transform="translate(16.401 155.1)" fill="#fff"/><path d="M116.478,608.931l-16.3,21.237L82.807,606.775l16.3-21.237Z" transform="translate(21.147 149.536)" fill="#fff"/><path d="M132.732,586.077l-14.755,19.229L101.4,582.977l14.753-19.227Z" transform="translate(25.894 143.972)" fill="#fff"/><path d="M148.986,563.223l-13.213,17.219-15.791-21.261,13.213-17.219Z" transform="translate(30.641 138.408)" fill="#fff"/><path d="M165.24,540.37l-11.671,15.21-15-20.2,11.671-15.209Z" transform="translate(35.388 132.843)" fill="#fff"/><path d="M181.494,517.516l-10.13,13.2-14.207-19.13,10.128-13.2Z" transform="translate(40.135 127.279)" fill="#fff"/><path d="M197.748,494.662l-8.587,11.192-13.416-18.065,8.587-11.19Z" transform="translate(44.882 121.715)" fill="#fff"/><path d="M214,471.809l-7.045,9.182-12.625-17,7.046-9.182Z" transform="translate(49.629 116.151)" fill="#fff"/><path d="M230.257,448.955l-5.5,7.172L212.92,440.195l5.5-7.172Z" transform="translate(54.376 110.587)" fill="#fff"/><path d="M246.511,426.1l-3.962,5.163L231.508,416.4l3.962-5.163Z" transform="translate(59.123 105.022)" fill="#fff"/><path d="M262.765,403.247l-2.42,3.154L250.1,392.6l2.419-3.154Z" transform="translate(63.87 99.458)" fill="#fff"/><path d="M279.019,380.394l-.879,1.145L268.682,368.8l.879-1.145Z" transform="translate(68.617 93.894)" fill="#fff"/><path d="M73.967,589.484,53.247,610.2,38.428,583.583l20.72-20.72Z" transform="translate(9.814 143.745)" fill="#fff"/><path d="M93.012,568.988,74.083,587.917,59.91,562.457l18.93-18.929Z" transform="translate(15.3 138.808)" fill="#fff"/><path d="M112.057,548.493,94.918,565.631l-13.527-24.3L98.53,524.192Z" transform="translate(20.786 133.87)" fill="#fff"/><path d="M131.1,528l-15.347,15.347L102.873,520.2l15.347-15.347Z" transform="translate(26.272 128.932)" fill="#fff"/><path d="M150.146,507.5l-13.557,13.557-12.235-21.982,13.557-13.556Z" transform="translate(31.758 123.994)" fill="#fff"/><path d="M169.191,487.006l-11.765,11.765-11.59-20.82L157.6,466.185Z" transform="translate(37.244 119.056)" fill="#fff"/><path d="M188.235,466.51l-9.974,9.974-10.944-19.661,9.975-9.974Z" transform="translate(42.73 114.118)" fill="#fff"/><path d="M207.28,446.015,199.1,454.2l-10.3-18.5,8.184-8.184Z" transform="translate(48.216 109.18)" fill="#fff"/><path d="M226.325,425.519l-6.392,6.392-9.653-17.339,6.392-6.394Z" transform="translate(53.702 104.242)" fill="#fff"/><path d="M245.369,405.023l-4.6,4.6-9.006-16.181,4.6-4.6Z" transform="translate(59.188 99.304)" fill="#fff"/><path d="M264.414,384.528l-2.811,2.811-8.361-15.019,2.811-2.812Z" transform="translate(64.674 94.366)" fill="#fff"/><path d="M283.459,364.032l-1.021,1.021-7.714-13.861,1.019-1.019Z" transform="translate(70.16 89.428)" fill="#fff"/><path d="M53.389,544.042,30.142,561.88,18.925,533.552l23.247-17.838Z" transform="translate(4.833 131.705)" fill="#fff"/><path d="M74.9,526.255l-21.237,16.3L42.933,515.459l21.237-16.3Z" transform="translate(10.964 127.477)" fill="#fff"/><path d="M96.408,508.468,77.179,523.223,66.94,497.364,86.169,482.61Z" transform="translate(17.095 123.25)" fill="#fff"/><path d="M117.917,490.681,100.7,503.894,90.948,479.27l17.219-13.213Z" transform="translate(23.227 119.023)" fill="#fff"/><path d="M139.427,472.895l-15.21,11.671-9.261-23.39,15.21-11.671Z" transform="translate(29.358 114.796)" fill="#fff"/><path d="M160.936,455.107l-13.2,10.13-8.773-22.156,13.2-10.128Z" transform="translate(35.489 110.569)" fill="#fff"/><path d="M182.446,437.321l-11.192,8.587-8.283-20.92,11.19-8.588Z" transform="translate(41.62 106.341)" fill="#fff"/><path d="M203.955,419.534l-9.182,7.045-7.795-19.686,9.182-7.045Z" transform="translate(47.751 102.114)" fill="#fff"/><path d="M225.464,401.747l-7.172,5.5L210.986,388.8l7.172-5.5Z" transform="translate(53.882 97.887)" fill="#fff"/><path d="M246.974,383.96l-5.163,3.962L234.993,370.7l5.163-3.962Z" transform="translate(60.013 93.66)" fill="#fff"/><path d="M268.484,366.173l-3.154,2.42L259,352.61l3.155-2.419Z" transform="translate(66.144 89.433)" fill="#fff"/><path d="M289.993,348.386l-1.145.879-5.84-14.748,1.145-.879Z" transform="translate(72.275 85.205)" fill="#fff"/><path d="M38.842,496.236,13.465,510.887,6.042,481.338l25.376-14.652Z" transform="translate(1.543 119.184)" fill="#fff"/><path d="M62.448,481.462,39.265,494.847l-7.1-28.261L55.347,453.2Z" transform="translate(8.215 115.74)" fill="#fff"/><path d="M86.054,466.688l-20.99,12.118-6.777-26.973,20.99-12.12Z" transform="translate(14.886 112.295)" fill="#fff"/><path d="M109.66,451.914l-18.8,10.852-6.453-25.685,18.8-10.853Z" transform="translate(21.557 108.851)" fill="#fff"/><path d="M133.266,437.14l-16.6,9.586-6.13-24.4,16.6-9.586Z" transform="translate(28.228 105.407)" fill="#fff"/><path d="M156.873,422.366l-14.409,8.319-5.806-23.11,14.409-8.319Z" transform="translate(34.9 101.963)" fill="#fff"/><path d="M180.479,407.593l-12.216,7.053-5.482-21.822L175,385.769Z" transform="translate(41.571 98.519)" fill="#fff"/><path d="M204.085,392.819l-10.023,5.787L188.9,378.071l10.023-5.787Z" transform="translate(48.243 95.075)" fill="#fff"/><path d="M227.691,378.045l-7.83,4.521-4.836-19.247,7.83-4.521Z" transform="translate(54.914 91.631)" fill="#fff"/><path d="M251.3,363.271l-5.637,3.254-4.512-17.959,5.637-3.254Z" transform="translate(61.585 88.187)" fill="#fff"/><path d="M274.9,348.5l-3.442,1.987-4.189-16.672,3.443-1.988Z" transform="translate(68.257 84.742)" fill="#fff"/><path d="M298.51,333.724l-1.249.722L293.4,319.061l1.249-.722Z" transform="translate(74.928 81.298)" fill="#fff"/><path d="M0,427.831,3.5,458.1l27.072-11.213-3.5-30.266Z" transform="translate(0 106.397)" fill="#fff"/><path d="M55.873,435.375,31.141,445.619l-3.349-28.947,24.731-10.244Z" transform="translate(7.098 103.795)" fill="#fff"/><path d="M81.173,423.867,58.78,433.142l-3.2-27.627,22.392-9.275Z" transform="translate(14.195 101.193)" fill="#fff"/><path d="M106.471,412.359l-20.052,8.306-3.044-26.309,20.051-8.306Z" transform="translate(21.292 98.591)" fill="#fff"/><path d="M131.77,400.851l-17.712,7.336-2.892-24.99,17.712-7.336Z" transform="translate(28.39 95.989)" fill="#fff"/><path d="M157.069,389.343,141.7,395.71l-2.739-23.67,15.372-6.367Z" transform="translate(35.487 93.387)" fill="#fff"/><path d="M182.368,377.835l-13.032,5.4-2.587-22.352,13.032-5.4Z" transform="translate(42.585 90.784)" fill="#fff"/><path d="M207.667,366.327l-10.692,4.429-2.434-21.033,10.692-4.429Z" transform="translate(49.682 88.182)" fill="#fff"/><path d="M232.966,354.819l-8.352,3.46-2.282-19.715,8.352-3.46Z" transform="translate(56.78 85.58)" fill="#fff"/><path d="M258.265,343.311l-6.013,2.491-2.129-18.4,6.013-2.491Z" transform="translate(63.877 82.978)" fill="#fff"/><path d="M283.564,331.8l-3.673,1.521-1.976-17.077,3.673-1.52Z" transform="translate(70.975 80.376)" fill="#fff"/><path d="M308.863,320.3l-1.333.552-1.824-15.758,1.333-.552Z" transform="translate(78.072 77.774)" fill="#fff"/><path d="M1,373.949.522,404.413l28.3-7.585.478-30.463Z" transform="translate(0.133 93.563)" fill="#fff"/><path d="M55.38,388.783l-25.857,6.928.457-29.136,25.857-6.929Z" transform="translate(7.54 91.848)" fill="#fff"/><path d="M81.935,380.738l-23.41,6.273L58.96,359.2l23.41-6.272Z" transform="translate(14.946 90.132)" fill="#fff"/><path d="M108.49,372.693l-20.965,5.618.416-26.481,20.965-5.618Z" transform="translate(22.352 88.417)" fill="#fff"/><path d="M135.044,364.648l-18.518,4.963.394-25.154,18.518-4.963Z" transform="translate(29.759 86.701)" fill="#fff"/><path d="M161.6,356.6l-16.071,4.306.373-23.826,16.071-4.306Z" transform="translate(37.165 84.985)" fill="#fff"/><path d="M188.154,348.557l-13.626,3.651.353-22.5,13.626-3.652Z" transform="translate(44.571 83.27)" fill="#fff"/><path d="M214.708,340.512l-11.179,3,.331-21.171,11.179-3Z" transform="translate(51.978 81.554)" fill="#fff"/><path d="M241.263,332.467l-8.732,2.34.311-19.844,8.732-2.34Z" transform="translate(59.384 79.839)" fill="#fff"/><path d="M267.818,324.421l-6.287,1.685.291-18.516,6.286-1.685Z" transform="translate(66.79 78.123)" fill="#fff"/><path d="M294.372,316.376l-3.84,1.029.27-17.189,3.84-1.029Z" transform="translate(74.197 76.407)" fill="#fff"/><path d="M320.927,308.331l-1.394.373.249-15.861,1.394-.373Z" transform="translate(81.603 74.692)" fill="#fff"/><path d="M34.241,346.929,5.189,350.754l4.45-30.142,29.052-3.824Z" transform="translate(1.325 80.902)" fill="#fff"/><path d="M61.565,342.484l-26.54,3.494,4.256-28.827,26.54-3.494Z" transform="translate(8.945 80.102)" fill="#fff"/><path d="M88.89,338.039,64.861,341.2l4.061-27.514,24.031-3.164Z" transform="translate(16.564 79.303)" fill="#fff"/><path d="M116.215,333.594,94.7,336.427l3.868-26.2,21.519-2.832Z" transform="translate(24.184 78.503)" fill="#fff"/><path d="M143.54,329.149l-19.008,2.5,3.674-24.887,19.008-2.5Z" transform="translate(31.803 77.703)" fill="#fff"/><path d="M170.865,324.7l-16.5,2.172,3.481-23.574,16.5-2.172Z" transform="translate(39.423 76.904)" fill="#fff"/><path d="M198.19,320.26,184.2,322.1l3.285-22.26L201.477,298Z" transform="translate(47.043 76.104)" fill="#fff"/><path d="M225.515,315.815l-11.474,1.51,3.092-20.946,11.474-1.51Z" transform="translate(54.662 75.304)" fill="#fff"/><path d="M252.84,311.37l-8.963,1.18,2.9-19.633,8.963-1.18Z" transform="translate(62.282 74.505)" fill="#fff"/><path d="M280.165,306.925l-6.453.85,2.7-18.32,6.453-.85Z" transform="translate(69.901 73.705)" fill="#fff"/><path d="M307.49,302.48l-3.942.519,2.511-17.005,3.942-.518Z" transform="translate(77.521 72.905)" fill="#fff"/><path d="M334.815,298.035l-1.43.188,2.316-15.692,1.43-.188Z" transform="translate(85.141 72.106)" fill="#fff"/><path d="M46.014,298.037h-29.3l8.346-29.3h29.3Z" transform="translate(4.268 68.63)" fill="#fff"/><path d="M73.642,297.269H46.872l7.983-28.025H81.623Z" transform="translate(11.97 68.76)" fill="#fff"/><path d="M101.269,296.5H77.033l7.618-26.748h24.238Z" transform="translate(19.673 68.89)" fill="#fff"/><path d="M128.9,295.732h-21.7l7.255-25.472h21.7Z" transform="translate(27.375 69.02)" fill="#fff"/><path d="M156.525,294.964H137.354l6.891-24.195h19.171Z" transform="translate(35.078 69.15)" fill="#fff"/><path d="M184.152,294.2H167.513l6.528-22.917h16.638Z" transform="translate(42.78 69.28)" fill="#fff"/><path d="M211.78,293.427H197.673l6.164-21.64h14.107Z" transform="translate(50.482 69.41)" fill="#fff"/><path d="M239.408,292.658H227.834l5.8-20.363h11.573Z" transform="translate(58.185 69.539)" fill="#fff"/><path d="M267.035,291.89h-9.041l5.437-19.087h9.04Z" transform="translate(65.887 69.669)" fill="#fff"/><path d="M294.663,291.122h-6.508l5.072-17.81h6.509Z" transform="translate(73.59 69.799)" fill="#fff"/><path d="M322.291,290.353h-3.976l4.709-16.532H327Z" transform="translate(81.292 69.929)" fill="#fff"/><path d="M349.918,289.585h-1.442l4.345-15.255h1.443Z" transform="translate(88.995 70.059)" fill="#fff"/><path d="M63.945,251.768l-29.052-3.825,12.1-27.961,29.052,3.824Z" transform="translate(8.911 56.18)" fill="#fff"/><path d="M91.4,254.622l-26.54-3.494,11.571-26.743,26.541,3.494Z" transform="translate(16.565 57.304)" fill="#fff"/><path d="M118.86,257.476l-24.029-3.163,11.045-25.525,24.029,3.164Z" transform="translate(24.218 58.429)" fill="#fff"/><path d="M146.318,260.33,124.8,257.5l10.518-24.305,21.519,2.832Z" transform="translate(31.871 59.553)" fill="#fff"/><path d="M173.775,263.184l-19.008-2.5,9.99-23.088,19.008,2.5Z" transform="translate(39.525 60.678)" fill="#fff"/><path d="M201.233,266.038l-16.5-2.172L194.2,242l16.5,2.173Z" transform="translate(47.178 61.802)" fill="#fff"/><path d="M228.691,268.892l-13.985-1.842L223.64,246.4l13.986,1.842Z" transform="translate(54.832 62.926)" fill="#fff"/><path d="M256.148,271.746l-11.474-1.51,8.409-19.432,11.474,1.51Z" transform="translate(62.485 64.051)" fill="#fff"/><path d="M283.606,274.6l-8.963-1.18,7.881-18.214,8.963,1.18Z" transform="translate(70.139 65.175)" fill="#fff"/><path d="M311.064,277.454l-6.453-.85,7.354-17,6.453.85Z" transform="translate(77.792 66.3)" fill="#fff"/><path d="M338.521,280.308l-3.942-.518,6.827-15.778,3.942.52Z" transform="translate(85.446 67.424)" fill="#fff"/><path d="M365.979,283.163l-1.43-.188,6.3-14.559,1.431.188Z" transform="translate(93.099 68.549)" fill="#fff"/><path d="M87.725,208.136l-28.3-7.584,15.646-26.143,28.3,7.584Z" transform="translate(15.175 44.541)" fill="#fff"/><path d="M114.543,214.564l-25.857-6.928,14.963-25,25.858,6.928Z" transform="translate(22.649 46.641)" fill="#fff"/><path d="M141.361,220.991l-23.41-6.273,14.281-23.865,23.41,6.273Z" transform="translate(30.122 48.741)" fill="#fff"/><path d="M168.179,227.419,147.214,221.8l13.6-22.725,20.964,5.617Z" transform="translate(37.596 50.841)" fill="#fff"/><path d="M195,233.846l-18.518-4.962L189.4,207.3l18.518,4.962Z" transform="translate(45.07 52.94)" fill="#fff"/><path d="M221.815,240.274l-16.071-4.306,12.236-20.448,16.071,4.306Z" transform="translate(52.543 55.04)" fill="#fff"/><path d="M248.633,246.7l-13.626-3.651,11.555-19.308,13.626,3.651Z" transform="translate(60.017 57.14)" fill="#fff"/><path d="M275.451,253.129l-11.179-3,10.873-18.169,11.179,3Z" transform="translate(67.49 59.24)" fill="#fff"/><path d="M302.269,259.556l-8.732-2.34,10.191-17.029,8.732,2.34Z" transform="translate(74.964 61.34)" fill="#fff"/><path d="M329.087,265.984,322.8,264.3l9.509-15.889,6.287,1.685Z" transform="translate(82.437 63.44)" fill="#fff"/><path d="M355.9,272.412l-3.84-1.029,8.828-14.751,3.84,1.029Z" transform="translate(89.911 65.539)" fill="#fff"/><path d="M382.722,278.839l-1.394-.373,8.145-13.612,1.393.374Z" transform="translate(97.385 67.639)" fill="#fff"/><path d="M116.949,167.887,89.878,156.674,108.8,132.8l27.071,11.214Z" transform="translate(22.953 33.914)" fill="#fff"/><path d="M142.669,177.778l-24.732-10.244,18.1-22.838,24.731,10.244Z" transform="translate(30.119 36.953)" fill="#fff"/><path d="M168.388,187.669,146,178.395l17.275-21.8,22.391,9.275Z" transform="translate(37.285 39.992)" fill="#fff"/><path d="M194.107,197.56l-20.052-8.306L190.506,168.5l20.052,8.306Z" transform="translate(44.451 43.032)" fill="#fff"/><path d="M219.827,207.451l-17.712-7.336L217.74,180.4l17.712,7.336Z" transform="translate(51.616 46.071)" fill="#fff"/><path d="M245.546,217.343l-15.372-6.367,14.8-18.675,15.372,6.367Z" transform="translate(58.782 49.11)" fill="#fff"/><path d="M271.265,227.234l-13.032-5.4L272.209,204.2l13.032,5.4Z" transform="translate(65.948 52.149)" fill="#fff"/><path d="M296.984,237.125,286.292,232.7,299.444,216.1l10.692,4.429Z" transform="translate(73.114 55.189)" fill="#fff"/><path d="M322.7,247.016l-8.352-3.46L326.678,228l8.352,3.46Z" transform="translate(80.28 58.228)" fill="#fff"/><path d="M348.423,256.907l-6.013-2.491,11.5-14.512,6.013,2.491Z" transform="translate(87.445 61.267)" fill="#fff"/><path d="M374.142,266.8l-3.673-1.521L381.146,251.8l3.673,1.52Z" transform="translate(94.611 64.307)" fill="#fff"/><path d="M399.861,276.689l-1.333-.552L408.38,263.7l1.333.552Z" transform="translate(101.777 67.346)" fill="#fff"/><path d="M151.117,131.71l-25.376-14.651,21.879-21.2L173,110.507Z" transform="translate(32.112 24.48)" fill="#fff"/><path d="M175.3,144.9,152.115,131.51l20.926-20.279,23.182,13.385Z" transform="translate(38.847 28.407)" fill="#fff"/><path d="M199.478,158.081l-20.99-12.118,19.972-19.355,20.99,12.118Z" transform="translate(45.583 32.333)" fill="#fff"/><path d="M223.659,171.266l-18.8-10.852,19.019-18.432,18.8,10.852Z" transform="translate(52.318 36.26)" fill="#fff"/><path d="M247.839,184.452l-16.6-9.586L249.3,157.358l16.6,9.586Z" transform="translate(59.054 40.187)" fill="#fff"/><path d="M272.02,197.637l-14.409-8.319,17.111-16.584,14.41,8.319Z" transform="translate(65.789 44.113)" fill="#fff"/><path d="M296.2,210.822l-12.216-7.053,16.158-15.66,12.216,7.053Z" transform="translate(72.525 48.04)" fill="#fff"/><path d="M320.381,224.008l-10.023-5.787,15.205-14.734,10.023,5.786Z" transform="translate(79.26 51.967)" fill="#fff"/><path d="M344.562,237.193l-7.83-4.521,14.251-13.812,7.83,4.521Z" transform="translate(85.995 55.893)" fill="#fff"/><path d="M368.742,250.379l-5.637-3.254,13.3-12.888,5.637,3.254Z" transform="translate(92.731 59.82)" fill="#fff"/><path d="M392.922,263.564l-3.442-1.987,12.344-11.964,3.442,1.987Z" transform="translate(99.466 63.747)" fill="#fff"/><path d="M417.1,276.749l-1.249-.722,11.39-11.039,1.25.721Z" transform="translate(106.202 67.674)" fill="#fff"/><path d="M189.643,100.224,166.4,82.386l24.46-18.167L214.1,82.057Z" transform="translate(42.495 16.401)" fill="#fff"/><path d="M211.871,116.478l-21.237-16.3,23.393-17.375,21.237,16.3Z" transform="translate(48.685 21.148)" fill="#fff"/><path d="M234.1,132.732l-19.229-14.754L237.2,101.395l19.227,14.755Z" transform="translate(54.874 25.895)" fill="#fff"/><path d="M256.328,148.986l-17.219-13.213,21.261-15.791,17.219,13.213Z" transform="translate(61.064 30.641)" fill="#fff"/><path d="M278.556,165.24l-15.21-11.671,20.2-15,15.209,11.671Z" transform="translate(67.254 35.388)" fill="#fff"/><path d="M300.784,181.494l-13.2-10.128,19.129-14.208,13.2,10.128Z" transform="translate(73.444 40.135)" fill="#fff"/><path d="M323.012,197.748l-11.192-8.587,18.065-13.416,11.19,8.587Z" transform="translate(79.633 44.882)" fill="#fff"/><path d="M345.24,214l-9.182-7.045,17-12.625,9.182,7.046Z" transform="translate(85.823 49.629)" fill="#fff"/><path d="M367.468,230.257l-7.172-5.5,15.932-11.833,7.172,5.5Z" transform="translate(92.013 54.376)" fill="#fff"/><path d="M389.7,246.511l-5.163-3.962L399.4,231.508l5.164,3.962Z" transform="translate(98.203 59.123)" fill="#fff"/><path d="M411.924,262.765l-3.154-2.42,13.8-10.249,3.153,2.419Z" transform="translate(104.393 63.87)" fill="#fff"/><path d="M434.153,279.019l-1.145-.879,12.735-9.458,1.145.879Z" transform="translate(110.583 68.617)" fill="#fff"/><path d="M231.869,73.967l-20.72-20.72,26.622-14.819,20.72,20.72Z" transform="translate(53.924 9.814)" fill="#fff"/><path d="M251.765,93.012,232.836,74.083,258.3,59.91l18.929,18.93Z" transform="translate(59.462 15.3)" fill="#fff"/><path d="M271.66,112.056,254.522,94.918l24.3-13.527L295.961,98.53Z" transform="translate(65 20.786)" fill="#fff"/><path d="M291.555,131.1l-15.347-15.347,23.14-12.881L314.7,118.219Z" transform="translate(70.539 26.272)" fill="#fff"/><path d="M311.451,150.146,297.894,136.59l21.982-12.236,13.556,13.557Z" transform="translate(76.077 31.758)" fill="#fff"/><path d="M331.346,169.19l-11.765-11.765,20.82-11.59L352.167,157.6Z" transform="translate(81.615 37.244)" fill="#fff"/><path d="M351.241,188.235l-9.974-9.974,19.661-10.944,9.974,9.975Z" transform="translate(87.154 42.73)" fill="#fff"/><path d="M371.137,207.28l-8.184-8.184,18.5-10.3,8.184,8.184Z" transform="translate(92.692 48.216)" fill="#fff"/><path d="M391.032,226.324l-6.392-6.392,17.339-9.653,6.394,6.392Z" transform="translate(98.23 53.702)" fill="#fff"/><path d="M410.927,245.369l-4.6-4.6,16.181-9.006,4.6,4.6Z" transform="translate(103.768 59.188)" fill="#fff"/><path d="M430.823,264.414l-2.811-2.811,15.019-8.361,2.812,2.811Z" transform="translate(109.307 64.674)" fill="#fff"/><path d="M450.718,283.459l-1.021-1.021,13.861-7.714,1.019,1.019Z" transform="translate(114.845 70.16)" fill="#fff"/><path d="M277.072,53.389,259.234,30.142l28.328-11.217L305.4,42.172Z" transform="translate(66.204 4.833)" fill="#fff"/><path d="M294.294,74.9,278,53.661l27.092-10.728,16.3,21.237Z" transform="translate(70.996 10.964)" fill="#fff"/><path d="M311.517,96.408,296.762,77.179,322.62,66.94l14.755,19.229Z" transform="translate(75.788 17.095)" fill="#fff"/><path d="M328.739,117.917,315.526,100.7l24.624-9.751,13.213,17.219Z" transform="translate(80.58 23.227)" fill="#fff"/><path d="M345.961,139.426l-11.671-15.21,23.39-9.261,11.671,15.209Z" transform="translate(85.372 29.358)" fill="#fff"/><path d="M363.183,160.936l-10.13-13.2,22.156-8.773,10.128,13.2Z" transform="translate(90.164 35.489)" fill="#fff"/><path d="M380.405,182.445l-8.587-11.192,20.92-8.283,8.588,11.19Z" transform="translate(94.956 41.62)" fill="#fff"/><path d="M397.627,203.955l-7.045-9.182,19.686-7.795,7.045,9.182Z" transform="translate(99.748 47.751)" fill="#fff"/><path d="M414.849,225.464l-5.5-7.172,18.452-7.306,5.5,7.172Z" transform="translate(104.54 53.882)" fill="#fff"/><path d="M432.072,246.974l-3.962-5.163,17.218-6.818,3.962,5.163Z" transform="translate(109.332 60.013)" fill="#fff"/><path d="M449.294,268.483l-2.42-3.153L462.857,259l2.419,3.155Z" transform="translate(114.124 66.144)" fill="#fff"/><path d="M466.516,289.993l-.879-1.145,14.748-5.84.879,1.145Z" transform="translate(118.916 72.275)" fill="#fff"/><path d="M324.479,38.842,309.827,13.465l29.549-7.423,14.652,25.376Z" transform="translate(79.124 1.543)" fill="#fff"/><path d="M338.733,62.448,325.348,39.264l28.261-7.1,13.385,23.182Z" transform="translate(83.088 8.215)" fill="#fff"/><path d="M352.987,86.054l-12.118-20.99,26.973-6.777,12.12,20.99Z" transform="translate(87.052 14.886)" fill="#fff"/><path d="M367.242,109.66l-10.852-18.8,25.685-6.453,10.853,18.8Z" transform="translate(91.016 21.557)" fill="#fff"/><path d="M381.5,133.266l-9.586-16.6,24.4-6.13,9.586,16.6Z" transform="translate(94.979 28.229)" fill="#fff"/><path d="M395.75,156.872l-8.32-14.409,23.11-5.806,8.319,14.409Z" transform="translate(98.943 34.9)" fill="#fff"/><path d="M410,180.478l-7.053-12.216,21.822-5.482L431.828,175Z" transform="translate(102.907 41.571)" fill="#fff"/><path d="M424.259,204.085l-5.787-10.023,20.536-5.158,5.787,10.023Z" transform="translate(106.87 48.243)" fill="#fff"/><path d="M438.513,227.691l-4.521-7.83,19.247-4.836,4.521,7.83Z" transform="translate(110.834 54.914)" fill="#fff"/><path d="M452.767,251.3l-3.254-5.637,17.96-4.512,3.254,5.637Z" transform="translate(114.798 61.585)" fill="#fff"/><path d="M467.022,274.9l-1.987-3.442,16.672-4.189,1.988,3.443Z" transform="translate(118.762 68.257)" fill="#fff"/><path d="M481.276,298.509l-.722-1.249,15.385-3.865.722,1.249Z" transform="translate(122.725 74.928)" fill="#fff"/><path d="M392.33,0,362.065,3.5l11.213,27.071,30.266-3.5Z" transform="translate(92.465)" fill="#fff"/><path d="M384.32,55.873,374.077,31.141l28.947-3.349,10.244,24.731Z" transform="translate(95.533 7.098)" fill="#fff"/><path d="M395.363,81.172,386.088,58.78l27.627-3.2,9.275,22.392Z" transform="translate(98.6 14.195)" fill="#fff"/><path d="M406.405,106.471,398.1,86.419l26.309-3.044,8.306,20.051Z" transform="translate(101.668 21.293)" fill="#fff"/><path d="M417.448,131.77l-7.336-17.712,24.99-2.892,7.336,17.712Z" transform="translate(104.735 28.39)" fill="#fff"/><path d="M428.491,157.069,422.123,141.7l23.67-2.739,6.367,15.372Z" transform="translate(107.803 35.487)" fill="#fff"/><path d="M439.533,182.368l-5.4-13.032,22.352-2.587,5.4,13.032Z" transform="translate(110.87 42.585)" fill="#fff"/><path d="M450.576,207.667l-4.429-10.692,21.033-2.434,4.429,10.692Z" transform="translate(113.938 49.682)" fill="#fff"/><path d="M461.618,232.966l-3.46-8.352,19.715-2.282,3.46,8.352Z" transform="translate(117.006 56.78)" fill="#fff"/><path d="M472.661,258.265l-2.491-6.013,18.4-2.129,2.491,6.013Z" transform="translate(120.073 63.877)" fill="#fff"/><path d="M483.7,283.564l-1.522-3.673,17.077-1.976,1.52,3.673Z" transform="translate(123.141 70.975)" fill="#fff"/><path d="M494.746,308.863l-.552-1.333,15.758-1.824.552,1.333Z" transform="translate(126.208 78.072)" fill="#fff"/><path d="M422.635,28.825,453.1,29.3,445.514,1,415.05.521Z" transform="translate(105.996 0.133)" fill="#fff"/><path d="M430.276,55.38l-6.928-25.857,29.136.457,6.928,25.857Z" transform="translate(108.116 7.54)" fill="#fff"/><path d="M437.918,81.935l-6.273-23.41,27.809.436,6.272,23.41Z" transform="translate(110.234 14.946)" fill="#fff"/><path d="M445.56,108.489l-5.618-20.965,26.481.416,5.618,20.965Z" transform="translate(112.354 22.352)" fill="#fff"/><path d="M453.2,135.044l-4.962-18.518,25.154.394,4.963,18.518Z" transform="translate(114.472 29.759)" fill="#fff"/><path d="M460.843,161.6l-4.306-16.071,23.826.373,4.306,16.071Z" transform="translate(116.592 37.165)" fill="#fff"/><path d="M468.485,188.153l-3.651-13.626,22.5.353,3.652,13.626Z" transform="translate(118.711 44.571)" fill="#fff"/><path d="M476.127,214.708l-3-11.179,21.171.331,3,11.179Z" transform="translate(120.83 51.978)" fill="#fff"/><path d="M483.769,241.263l-2.34-8.732,19.844.311,2.34,8.732Z" transform="translate(122.948 59.384)" fill="#fff"/><path d="M491.411,267.817l-1.685-6.287,18.516.291,1.685,6.286Z" transform="translate(125.067 66.79)" fill="#fff"/><path d="M499.053,294.372l-1.029-3.84,17.189.27,1.029,3.84Z" transform="translate(127.186 74.197)" fill="#fff"/><path d="M506.694,320.926l-.373-1.393,15.861.249.373,1.394Z" transform="translate(129.306 81.603)" fill="#fff"/><path d="M471.7,34.24,467.879,5.189l30.142,4.449,3.824,29.052Z" transform="translate(119.488 1.325)" fill="#fff"/><path d="M475.814,61.565l-3.494-26.54,28.827,4.256,3.494,26.54Z" transform="translate(120.622 8.945)" fill="#fff"/><path d="M479.925,88.89l-3.164-24.029,27.514,4.061,3.164,24.03Z" transform="translate(121.756 16.564)" fill="#fff"/><path d="M484.035,116.215,481.2,94.7l26.2,3.868,2.832,21.519Z" transform="translate(122.89 24.184)" fill="#fff"/><path d="M488.145,143.54l-2.5-19.008,24.887,3.675,2.5,19.008Z" transform="translate(124.025 31.803)" fill="#fff"/><path d="M492.256,170.865l-2.172-16.5,23.573,3.481,2.172,16.5Z" transform="translate(125.159 39.423)" fill="#fff"/><path d="M496.366,198.19,494.525,184.2l22.26,3.285,1.842,13.986Z" transform="translate(126.293 47.043)" fill="#fff"/><path d="M500.477,225.515l-1.51-11.474,20.946,3.092,1.51,11.474Z" transform="translate(127.427 54.662)" fill="#fff"/><path d="M504.587,252.84l-1.18-8.963,19.633,2.9,1.18,8.963Z" transform="translate(128.561 62.282)" fill="#fff"/><path d="M508.7,280.165l-.85-6.453,18.32,2.705.85,6.452Z" transform="translate(129.695 69.901)" fill="#fff"/><path d="M512.808,307.49l-.518-3.942,17.005,2.511.519,3.942Z" transform="translate(130.83 77.521)" fill="#fff"/><path d="M516.918,334.814l-.188-1.43,15.692,2.316.188,1.43Z" transform="translate(131.964 85.141)" fill="#fff"/><path d="M519.647,46.014v-29.3l29.3,8.346v29.3Z" transform="translate(132.709 4.268)" fill="#fff"/><path d="M520.156,73.642V46.872l28.025,7.983V81.623Z" transform="translate(132.838 11.97)" fill="#fff"/><path d="M520.664,101.269V77.033l26.748,7.618v24.238Z" transform="translate(132.968 19.673)" fill="#fff"/><path d="M521.173,128.9v-21.7l25.472,7.255v21.7Z" transform="translate(133.098 27.375)" fill="#fff"/><path d="M521.681,156.524V137.353l24.2,6.891v19.171Z" transform="translate(133.228 35.078)" fill="#fff"/><path d="M522.19,184.152V167.513l22.917,6.527v16.639Z" transform="translate(133.358 42.78)" fill="#fff"/><path d="M522.7,211.78V197.673l21.64,6.164v14.107Z" transform="translate(133.488 50.482)" fill="#fff"/><path d="M523.207,239.407V227.834l20.364,5.8v11.573Z" transform="translate(133.618 58.185)" fill="#fff"/><path d="M523.716,267.035v-9.041l19.087,5.437v9.04Z" transform="translate(133.748 65.887)" fill="#fff"/><path d="M524.224,294.663v-6.508l17.81,5.072v6.509Z" transform="translate(133.878 73.59)" fill="#fff"/><path d="M524.733,322.29v-3.976l16.532,4.709V327Z" transform="translate(134.008 81.292)" fill="#fff"/><path d="M525.242,349.918v-1.442L540.5,352.82v1.442Z" transform="translate(134.137 88.995)" fill="#fff"/></g></svg>