<svg xmlns="http://www.w3.org/2000/svg" xmlns:xlink="http://www.w3.org/1999/xlink" width="118.917" height="113.075" viewBox="0 0 118.917 113.075">
  <defs>
    <clipPath id="clip-path">
      <rect id="Rectangle_157" data-name="Rectangle 157" width="118.917" height="113.075" fill="#fff"/>
    </clipPath>
  </defs>
  <g id="Group_621" data-name="Group 621" transform="translate(-980 -6376.325)">
    <g id="Group_620" data-name="Group 620">
      <g id="Group_594" data-name="Group 594" transform="translate(980 6376.325)">
        <path id="Path_3131" data-name="Path 3131" d="M538.515,114.249,512.8,171.995h1.783l25.71-57.746Z" transform="translate(-421.381 -93.88)" fill="#fff"/>
        <path id="Path_3132" data-name="Path 3132" d="M99.9,0,94.037,13.176h1.783L101.685,0Z" transform="translate(-77.272)" fill="#fff"/>
        <path id="Path_3133" data-name="Path 3133" d="M11.616,487.906,0,514H1.782L13.4,487.906Z" transform="translate(0 -400.921)" fill="#fff"/>
        <g id="Group_598" data-name="Group 598" transform="translate(0)">
          <g id="Group_597" data-name="Group 597" clip-path="url(#clip-path)">
            <path id="Path_3134" data-name="Path 3134" d="M129.873,112.284a6.021,6.021,0,1,0-3.051-7.949,6.028,6.028,0,0,0,3.051,7.949" transform="translate(-103.784 -82.799)" fill="#fff"/>
            <path id="Path_3135" data-name="Path 3135" d="M142.263,111.13a4.238,4.238,0,1,1-5.6,2.148,4.243,4.243,0,0,1,5.6-2.148" transform="translate(-112.001 -91.016)" fill="#ff6196"/>
            <path id="Path_3136" data-name="Path 3136" d="M34.2,194.957a1.158,1.158,0,0,1-1.509.541l-5.719-2.547a1.16,1.16,0,0,1-.612-1.472l7.26-19.072-2.5-1.114a1.349,1.349,0,0,1-.683-1.779L35.8,157.471a1.211,1.211,0,0,1,1.25-.713l4.419.507a6.554,6.554,0,0,1,1.92.524l4.281,1.906c.114.051.225.108.336.165a4.054,4.054,0,0,1,1.146-1.408,8.336,8.336,0,0,0-.757-.386l-4.281-1.906a8.328,8.328,0,0,0-2.442-.667l-4.419-.507a2.987,2.987,0,0,0-3.081,1.76L28.8,168.79a3.134,3.134,0,0,0,1.586,4.133l.96.427-6.66,17.5a2.943,2.943,0,0,0,1.553,3.735l5.719,2.546a2.937,2.937,0,0,0,3.83-1.374l7.548-15.121a4.2,4.2,0,0,1-1.451-1.084Z" transform="translate(-20.13 -127.339)" fill="#fff"/>
            <path id="Path_3137" data-name="Path 3137" d="M222.557,118.966a7.3,7.3,0,1,0-3.7-9.642,7.311,7.311,0,0,0,3.7,9.642" transform="translate(-179.319 -86.273)" fill="#fff"/>
            <path id="Path_3138" data-name="Path 3138" d="M238.788,122.757a5.52,5.52,0,1,1-2.8-7.288,5.527,5.527,0,0,1,2.8,7.288" transform="translate(-187.536 -94.491)" fill="#ff6196"/>
            <path id="Path_3139" data-name="Path 3139" d="M113.308,204.1a5.23,5.23,0,0,1-.718-.557l-9.52,19.071a1.669,1.669,0,0,1-2.176.781l-7.149-3.183a1.673,1.673,0,0,1-.883-2.123l8.979-23.586.022-.057-.3-.135-2.631-1.171a1.911,1.911,0,0,1-.966-2.518l6.563-14.74.14-.315a1.724,1.724,0,0,1,1.413-1.024,1.762,1.762,0,0,1,.378,0l5.524.633a8.411,8.411,0,0,1,2.465.673l5.352,2.383.126.059a5.132,5.132,0,0,1,1.162-1.414c-.185-.1-.372-.188-.563-.273l-5.352-2.383a10.185,10.185,0,0,0-2.988-.816l-5.524-.633a3.518,3.518,0,0,0-2.171.45q-.118.068-.231.146a3.518,3.518,0,0,0-1.17,1.368c-.017.035-.036.069-.052.1l-6.7,15.055a3.693,3.693,0,0,0,1.867,4.87l0,0,.225.1,1.167.52L91.2,217.45a3.456,3.456,0,0,0,1.824,4.386l7.149,3.183a3.448,3.448,0,0,0,4.5-1.613l9.431-18.892-.076-.034a5.287,5.287,0,0,1-.711-.384" transform="translate(-74.751 -141.948)" fill="#fff"/>
            <path id="Path_3140" data-name="Path 3140" d="M436.94,214.416a7.3,7.3,0,1,0-3.7-9.642,7.311,7.311,0,0,0,3.7,9.642" transform="translate(-355.482 -164.706)" fill="#fff"/>
            <path id="Path_3141" data-name="Path 3141" d="M453.171,218.207a5.52,5.52,0,1,1-2.8-7.288,5.526,5.526,0,0,1,2.8,7.288" transform="translate(-363.698 -172.923)" fill="#ff6196"/>
            <path id="Path_3142" data-name="Path 3142" d="M341.678,283.108l-4.167-3.681a10.189,10.189,0,0,0-2.605-1.674l-5.352-2.383c-.191-.085-.384-.162-.579-.235a5.046,5.046,0,0,1-.058.933,5.107,5.107,0,0,1-.216.877c.043.018.086.035.128.054l5.352,2.383a8.413,8.413,0,0,1,2.15,1.382l4.167,3.681a1.736,1.736,0,0,1,.438,2.015l-6.7,15.055a1.909,1.909,0,0,1-2.518.967l-2.977-1.325-11.285,22.606a1.669,1.669,0,0,1-2.176.781l-7.149-3.183a1.673,1.673,0,0,1-.883-2.123l7.594-19.947a5.236,5.236,0,0,1-.934-.173,5.312,5.312,0,0,1-.718-.259l-.078-.035-7.53,19.78a3.456,3.456,0,0,0,1.824,4.386l7.15,3.183a3.449,3.449,0,0,0,4.5-1.613l10.523-21.08,1.418.632a3.694,3.694,0,0,0,4.872-1.87l6.7-15.055a3.512,3.512,0,0,0-.887-4.076" transform="translate(-250.913 -226.082)" fill="#fff"/>
            <path id="Path_3143" data-name="Path 3143" d="M336.667,126.542a8.906,8.906,0,1,0-4.514-11.758,8.916,8.916,0,0,0,4.514,11.758" transform="translate(-272.303 -89.978)" fill="#fff"/>
            <path id="Path_3144" data-name="Path 3144" d="M351.4,120.115a7.123,7.123,0,1,1-9.4,3.61,7.131,7.131,0,0,1,9.4-3.61" transform="translate(-280.52 -98.195)" fill="#ff6196"/>
            <path id="Path_3145" data-name="Path 3145" d="M204.9,231.768a4.346,4.346,0,0,0,.947.139,4.4,4.4,0,0,0,4.174-2.6l8.379-18.819c.053-.119.1-.24.14-.361a4.2,4.2,0,0,0,.2-.877,4.179,4.179,0,0,0-1.389-3.6l-5.209-4.6a12.516,12.516,0,0,0-3.2-2.056l-6.69-2.979a12.517,12.517,0,0,0-3.669-1l-6.905-.792a4.171,4.171,0,0,0-4.124,2.109c-.063.112-.122.227-.175.346L179,215.495a4.4,4.4,0,0,0,.851,4.831,4.414,4.414,0,0,0,1.374.964l.112.05.489.218,1.332.593-10.576,27.78a4.1,4.1,0,0,0,2.162,5.2l8.937,3.979a4.088,4.088,0,0,0,5.331-1.912l13.249-26.541,1.356.6.489.218.123.055a4.391,4.391,0,0,0,.674.236m-2.705-3.092-.77-.343-.085.171-13.925,27.9a2.309,2.309,0,0,1-3.01,1.08L175.47,253.5a2.314,2.314,0,0,1-1.221-2.936l11.1-29.15.079-.207-.718-.32-2.756-1.227a2.617,2.617,0,0,1-1.321-3.442l8.37-18.8.008-.019a2.412,2.412,0,0,1,.5-.723,2.4,2.4,0,0,1,1.383-.682,2.429,2.429,0,0,1,.587,0l6.905.792a10.742,10.742,0,0,1,3.147.859l6.69,2.979a10.737,10.737,0,0,1,2.744,1.764l5.209,4.6a2.425,2.425,0,0,1,.39.439,2.4,2.4,0,0,1,.419,1.471,2.408,2.408,0,0,1-.205.867l-.008.019-8.37,18.8a2.619,2.619,0,0,1-3.442,1.321Z" transform="translate(-141.593 -159.572)" fill="#fff"/>
          </g>
        </g>
      </g>
    </g>
  </g>
</svg>
