<svg xmlns="http://www.w3.org/2000/svg" xmlns:xlink="http://www.w3.org/1999/xlink" width="108.755" height="112.802" viewBox="0 0 108.755 112.802">
  <defs>
    <clipPath id="clip-path">
      <rect id="Rectangle_158" data-name="Rectangle 158" width="108.755" height="112.802" fill="#fff"/>
    </clipPath>
  </defs>
  <g id="Group_622" data-name="Group 622" transform="translate(-980.5 -6905.326)">
    <g id="Group_599" data-name="Group 599" transform="translate(980.5 6905.326)">
      <path id="Path_3146" data-name="Path 3146" d="M588.5,25.306h-1.565l5.15-11.566h1.565Z" transform="translate(-495.073 -11.589)" fill="#fff"/>
      <path id="Path_3147" data-name="Path 3147" d="M547.717,574.4l-10.2,22.9h1.565l10.2-22.9Z" transform="translate(-453.393 -484.501)" fill="#fff"/>
      <path id="Path_3148" data-name="Path 3148" d="M22.57,153.162,0,203.856H1.565l22.57-50.693Z" transform="translate(0 -129.191)" fill="#fff"/>
      <g id="Group_600" data-name="Group 600" transform="translate(0)">
        <g id="Group_599-2" data-name="Group 599" clip-path="url(#clip-path)">
          <path id="Path_3149" data-name="Path 3149" d="M330.2,329.258l-31.831-14.172,5.378-12.079,5.266,2.345a4.2,4.2,0,1,0,3.417-7.674l-5.267-2.345,5.378-12.079L323.185,288l1.708-3.837a5.765,5.765,0,0,1,10.533,4.69l-1.708,3.837,10.649,4.741-4.741,10.649,3.837,1.708a5.765,5.765,0,0,1-4.69,10.533l-3.837-1.708ZM300.43,314.293l28.972,12.9,4.741-10.649,5.267,2.345a4.2,4.2,0,1,0,3.416-7.673l-5.267-2.345L342.3,298.22l-10.649-4.741L334,288.212a4.2,4.2,0,0,0-7.674-3.416l-2.345,5.267-10.649-4.741-4.1,9.219,3.837,1.708a5.765,5.765,0,1,1-4.69,10.533l-3.837-1.708Z" transform="translate(-251.668 -236.798)" fill="#fff"/>
          <path id="Path_3150" data-name="Path 3150" d="M403.616,148.584l-12.079-5.378,2.3-5.172a4.2,4.2,0,0,0-7.674-3.416l-2.3,5.172-12.079-5.378,4.836-10.861-3.837-1.708a5.765,5.765,0,0,1,4.69-10.533l3.837,1.708,4.647-10.437,31.831,14.172L413.047,127.4l3.837,1.708a5.765,5.765,0,0,1-4.69,10.533l-3.837-1.708ZM393.6,142.413l9.219,4.1,4.741-10.649,5.267,2.345a4.2,4.2,0,0,0,3.417-7.674l-5.267-2.345,4.741-10.649-28.972-12.9L382.1,115.083l-5.267-2.345a4.2,4.2,0,1,0-3.416,7.674l5.266,2.345-4.836,10.861,9.219,4.1,1.666-3.742a5.765,5.765,0,0,1,10.533,4.69Z" transform="translate(-311.553 -86.525)" fill="#fff"/>
          <path id="Path_3151" data-name="Path 3151" d="M204.805,51.042a5.768,5.768,0,0,1-5.265-8.113l1.708-3.837L190.6,34.351,204.772,2.519,215.421,7.26l1.708-3.837a5.765,5.765,0,1,1,10.533,4.69l-1.708,3.837L236.6,16.691,231.32,28.558l-5.266-2.345a4.2,4.2,0,1,0-3.417,7.674l5.267,2.345-5.472,12.291-10.649-4.741-1.708,3.837a5.78,5.78,0,0,1-5.269,3.423M192.666,33.557,203.315,38.3l-2.345,5.267a4.2,4.2,0,1,0,7.674,3.416l2.345-5.266,10.649,4.741,4.2-9.431L222,35.317a5.765,5.765,0,0,1,4.69-10.533l3.837,1.708,4.01-9.007-10.649-4.741,2.345-5.267a4.2,4.2,0,1,0-7.674-3.417l-2.345,5.267L205.565,4.586Z" transform="translate(-160.77 0)" fill="#fff"/>
          <path id="Path_3152" data-name="Path 3152" d="M154.464,243.156l-4.552-2.027,4.741-10.649L144,225.739l-2.026,4.552a4.982,4.982,0,0,1-9.1-4.053l2.027-4.552-10.649-4.741-13.536,30.4,30.4,13.536,4.741-10.649,4.552,2.027a4.982,4.982,0,0,0,4.053-9.1" transform="translate(-93.388 -182.991)" fill="#ff6196"/>
          <path id="Path_3153" data-name="Path 3153" d="M135.946,256.347l-31.832-14.172,14.172-31.831,12.079,5.378-2.345,5.267a4.2,4.2,0,0,0,7.674,3.417l2.345-5.267,12.079,5.378-4.741,10.649,3.837,1.708a5.765,5.765,0,0,1-4.69,10.533l-3.837-1.708ZM106.18,241.381l28.972,12.9,4.741-10.649,5.267,2.345a4.2,4.2,0,1,0,3.417-7.673l-5.267-2.345,4.741-10.649-9.219-4.1-1.708,3.837a5.765,5.765,0,1,1-10.533-4.69l1.708-3.837-9.219-4.1Z" transform="translate(-87.819 -177.423)" fill="#fff"/>
        </g>
      </g>
    </g>
  </g>
</svg>
