<svg id="Group_601" data-name="Group 601" xmlns="http://www.w3.org/2000/svg" xmlns:xlink="http://www.w3.org/1999/xlink" width="118.658" height="112.386" viewBox="0 0 118.658 112.386">
  <defs>
    <clipPath id="clip-path">
      <rect id="Rectangle_161" data-name="Rectangle 161" width="118.658" height="112.386" fill="#fff"/>
    </clipPath>
  </defs>
  <path id="Path_3154" data-name="Path 3154" d="M95.574,145,13.337,108.391,36.675,55.972l82.237,36.614ZM15.725,107.474l78.933,35.143L116.524,93.5,37.592,58.36Z" transform="translate(-10.925 -45.85)" fill="#fff"/>
  <path id="Path_3155" data-name="Path 3155" d="M2.388,342.862,4.064,339.1,83,374.241l-1.676,3.765ZM0,343.779l82.236,36.614,3.147-7.069L3.147,336.71Z" transform="translate(0 -275.822)" fill="#fff"/>
  <path id="Path_3156" data-name="Path 3156" d="M198.039,426.274l-20.4-9.085,1.941-4.36,20.4,9.085Zm-18.017-10,17.1,7.614.47-1.056-17.1-7.614Z" transform="translate(-145.512 -338.176)" fill="#fff"/>
  <rect id="Rectangle_159" data-name="Rectangle 159" width="1.808" height="8.742" transform="matrix(0.407, -0.914, 0.914, 0.407, 33.029, 22.425)" fill="#fff"/>
  <rect id="Rectangle_160" data-name="Rectangle 160" width="1.808" height="2.892" transform="translate(28.431 20.378) rotate(-66.001)" fill="#fff"/>
  <g id="Group_602" data-name="Group 602">
    <g id="Group_601-2" data-name="Group 601" clip-path="url(#clip-path)">
      <path id="Path_3157" data-name="Path 3157" d="M162.917,221.915a7.408,7.408,0,1,0-3.754-9.78,7.416,7.416,0,0,0,3.754,9.78" transform="translate(-129.857 -170.174)" fill="#fff"/>
      <path id="Path_3158" data-name="Path 3158" d="M176.4,218.224a5.6,5.6,0,1,1-7.393,2.838,5.606,5.606,0,0,1,7.393-2.838" transform="translate(-138.048 -178.365)" fill="#ff6196"/>
      <path id="Path_3159" data-name="Path 3159" d="M83.96,278.671l.142-.32a1.749,1.749,0,0,1,1.433-1.039,1.788,1.788,0,0,1,.383,0l5.6.642a8.526,8.526,0,0,1,2.5.683l5.429,2.417.128.06a5.21,5.21,0,0,1,1.178-1.435c-.187-.1-.377-.191-.571-.277l-5.429-2.417a10.334,10.334,0,0,0-3.03-.827l-5.6-.642a3.568,3.568,0,0,0-2.2.456q-.12.069-.234.148a3.57,3.57,0,0,0-1.186,1.388c-.017.036-.036.07-.052.106L78.807,285.8l1.652.735Z" transform="translate(-64.556 -225.676)" fill="#fff"/>
      <path id="Path_3160" data-name="Path 3160" d="M377.3,317.364a7.408,7.408,0,1,0-3.754-9.78,7.416,7.416,0,0,0,3.754,9.78" transform="translate(-305.473 -248.363)" fill="#fff"/>
      <path id="Path_3161" data-name="Path 3161" d="M390.782,313.673a5.6,5.6,0,1,1-7.392,2.838,5.606,5.606,0,0,1,7.392-2.838" transform="translate(-313.664 -256.554)" fill="#ff6196"/>
      <path id="Path_3162" data-name="Path 3162" d="M389.777,385.971l-4.227-3.734a10.336,10.336,0,0,0-2.642-1.7l-5.429-2.417c-.194-.086-.39-.165-.588-.239a5.116,5.116,0,0,1-.059.946,5.186,5.186,0,0,1-.219.89c.043.018.087.036.13.055l5.429,2.417a8.533,8.533,0,0,1,2.181,1.4l4.226,3.734a1.761,1.761,0,0,1,.445,2.044l-3.643,8.183,1.652.735,3.643-8.182a3.562,3.562,0,0,0-.9-4.135" transform="translate(-308.51 -309.55)" fill="#fff"/>
      <path id="Path_3163" data-name="Path 3163" d="M277.04,229.533a9.033,9.033,0,1,0-4.578-11.927,9.044,9.044,0,0,0,4.578,11.927" transform="translate(-222.553 -173.867)" fill="#fff"/>
      <path id="Path_3164" data-name="Path 3164" d="M291.845,222.872a7.225,7.225,0,1,1-9.539,3.662,7.233,7.233,0,0,1,9.539-3.662" transform="translate(-230.744 -182.058)" fill="#ff6196"/>
      <path id="Path_3165" data-name="Path 3165" d="M206.111,313.1a4.256,4.256,0,0,0,.2-.89,4.239,4.239,0,0,0-1.409-3.651l-5.283-4.668a12.694,12.694,0,0,0-3.245-2.086l-6.786-3.021a12.7,12.7,0,0,0-3.722-1.016l-7-.8a4.235,4.235,0,0,0-2.455.457,4.23,4.23,0,0,0-1.205.944,4.25,4.25,0,0,0-.524.739c-.064.114-.124.23-.177.351l-4.991,11.211,1.652.735,4.983-11.191.008-.019a2.431,2.431,0,0,1,2.5-1.429l7,.8a10.9,10.9,0,0,1,3.192.872l6.786,3.021a10.887,10.887,0,0,1,2.784,1.789l5.283,4.667a2.463,2.463,0,0,1,.4.445,2.44,2.44,0,0,1,.425,1.492,2.447,2.447,0,0,1-.208.88l-.008.019-4.983,11.191,1.652.736,4.991-11.211c.054-.121.1-.243.142-.367" transform="translate(-138.857 -243.246)" fill="#fff"/>
      <path id="Path_3166" data-name="Path 3166" d="M503.773,90.815h-1.808l26.078-58.572h1.808Z" transform="translate(-411.194 -26.413)" fill="#fff"/>
      <path id="Path_3167" data-name="Path 3167" d="M60.919,13.365H59.111L65.061,0h1.808Z" transform="translate(-48.422 -0.001)" fill="#fff"/>
      <path id="Path_3168" data-name="Path 3168" d="M54.82,475.151H53.012L41.23,501.614h1.808Z" transform="translate(-33.774 -389.228)" fill="#fff"/>
    </g>
  </g>
</svg>
